<?xml version="1.0" encoding="utf-8"?>
<!-- Generator: Adobe Illustrator 19.2.1, SVG Export Plug-In . SVG Version: 6.00 Build 0)  -->
<svg version="1.1" id="Layer_1" xmlns="http://www.w3.org/2000/svg" xmlns:xlink="http://www.w3.org/1999/xlink" x="0px" y="0px"
	 viewBox="0 0 432 216" style="enable-background:new 0 0 432 216;" xml:space="preserve">
<title>tenkiv-intro</title>
<path d="M432,216H0V0h432V216z M105.4,66.5H36v12h27v73.4h15.1V78.5h27.3L105.4,66.5z M153.4,149.9c4.2-2,7.8-5,10.4-8.9l-7.9-7.3
	c-3.9,5.1-9.9,8-16.4,7.9c-4.4,0.1-8.7-1.5-11.9-4.6c-3.1-3-4.9-7.2-5.4-12.4h42.5v-5.7c0-10.1-2.4-17.9-7.2-23.4
	c-4.8-5.5-11.7-8.3-20.5-8.3c-5.3-0.1-10.6,1.4-15.1,4.2c-4.5,2.8-8.2,6.8-10.5,11.6c-2.6,5.3-3.9,11.1-3.8,17v1.8
	c0,9.5,2.9,17,8.6,22.7c5.7,5.7,13.2,8.5,22.5,8.5C143.8,153.1,148.8,152,153.4,149.9L153.4,149.9z M146.5,102.4
	c2.3,2.4,3.6,6,3.9,10.8v1h-27.8c0.7-4.9,2.2-8.7,4.7-11.4c2.5-2.7,6-4.2,9.7-4.1C141.1,98.7,144.2,99.9,146.5,102.4L146.5,102.4z
	 M176,88.4v63.4h14.6v-45.1c2.5-5,7.6-8,13.2-7.8c4,0,7,1,8.7,2.9c1.8,1.9,2.7,4.9,2.7,8.9v41.1h14.6v-41.9
	c-0.2-15.1-7.1-22.7-20.7-22.7c-7.8,0-14.1,2.8-18.9,8.5l-0.4-7.3H176z M285,151.8h16.9l-26.7-37l24.2-26.4h-17.5l-18,19.8l-4.6,5.6
	V61.8h-14.6v90h14.6v-20.7l6.5-6.5L285,151.8z M311,77.3c1.7,1.5,3.9,2.3,6.1,2.2c2.3,0.1,4.5-0.6,6.1-2.2c1.4-1.4,2.2-3.4,2.2-5.4
	c0.1-2-0.7-4-2.2-5.5c-1.7-1.5-3.9-2.3-6.1-2.2c-2.2-0.1-4.5,0.6-6.1,2.2c-1.4,1.5-2.2,3.4-2.1,5.5C308.8,73.9,309.6,75.9,311,77.3
	L311,77.3z M324.4,88.4h-14.6v63.4h14.6V88.4z M349.2,88.4h-15.1l22.7,63.4h12.7l22.5-63.4H377l-13.8,45.4L349.2,88.4z"/>
</svg>
