<svg id="Layer_2" data-name="Layer 2" xmlns="http://www.w3.org/2000/svg" viewBox="0 0 99 76.13"><defs><style>.cls-1{fill:none;stroke:#000;stroke-linecap:round;stroke-linejoin:round;}</style></defs><title>afghanistanSvg</title><path class="cls-1" d="M6.18,37.19l.69-.2A13.5,13.5,0,0,0,8.4,38.57a13.9,13.9,0,0,0,2.19,0,1.47,1.47,0,0,1,1.6.43c.59.79.85.85.85.85l.16,1.38,1.38-1.41.75.59,2.75-1.77h.56V37l.88-.62-.82-1.08.26-.46h1.28l1.34-.33.43-.39h.62l1.47-.39a1.07,1.07,0,0,1,1.15,0l0-.82.72-.52.75.07L27,32l.36-.13.26-.07.95-.95.52-.79L29,28.28l1.18-2.39-.26-1.6,2.52-1.11,2.82.07.72-1,0-.92s.52-.82.85-.72.23.39.56.59a6.11,6.11,0,0,0,1.47.33l.72.66,1,.46,1.64-.33a.24.24,0,0,1,.33-.07l.39.29.2-.36.85.13s.9-.66,1.51-.2.43.75.43.75l.69.36.39.59,1.64-.88.52.46.72.1.62.36.1.72.72.2.2.52.69.56,1.38-.69.29.07.1-.85h.82L55,24a4.81,4.81,0,0,1,1.44-.52l.23-.66.69.1.16.29s0-.66.2-.62.39.46.39.46l.1-.59.52.26,1.83,1.8,1.18-.92.1-.36-.33,0-.1-1.67,1.15-1.28,1.87.2.23-.36.43.1.39.29,1.18.33.43-.75h.36l.2-.79s.08-1.06-.69-1.31l-.07-.69a.47.47,0,0,0,.62-.13c.29-.34-.07-.39-.07-.39l1.64-1.15.85-2,1-.82a4.21,4.21,0,0,0,.72-.07c.31-.07.69-.38.79-.13s.33.75.33.75.26-.34.43-.2.56.85.82.88.9.15.95.69a2.86,2.86,0,0,1-.39,1.47,6.29,6.29,0,0,0-.33,1.28l.56.33L76,17.08l.56.33,0,1-.46.26-.66,6.22,1,2.62.66.49,1.28-.13,3.34-2.55,2-.23,1-1.87,2-.79.1-.39,1.34-.82.46.33.52-.39,2.1.26v1l-.69.16-.33.36,1.08.36,3.18-1.18.1-.23.85-.29.26.23.36-.33.69.49.88-.2.85.52.43.79-.49.2L98,22.81l-.59.36-.2-.26-.26.43-.59-.07-.29.92.82.85-.46.07.16.69-.88-.59,0,.49-1.18.52L94,26l-.29.79-1,0-.33-.29L92.19,26,91.76,26l-.49.23s-.41-.31-1.31.13l-.75-.2a24.24,24.24,0,0,1-2.46.23,3.61,3.61,0,0,0-1.08.29l-2.06-.07-1.11.59a5.63,5.63,0,0,0-1.6.23.89.89,0,0,0-.16.88l-.79,0-.13.52s-.75.36-.88.46-.62.43-1,.23c0,0,.41.59.07.79L77.35,30l-.29-.16-.23-.16-.49.88.2.43L76,31l-2.06,2.39.72.62H75l.33.72.62.66-.07.39.39.26-.36.88.79.33s.08.61,0,.75l.39.46-.79,1.21.85.79-1,1a.71.71,0,0,1,0,.72,2.41,2.41,0,0,1-.95.66,3.7,3.7,0,0,0-1,1.18,1.18,1.18,0,0,1-.88.69l0,.62s-.9.62-.75,1,.79.57.82.75a.91.91,0,0,1,0,.33l.33.13a8.78,8.78,0,0,1-.13,1,2,2,0,0,1-.43,1l-.1.43s-.62.21-.79.29-.57.26-.59.49c0,0-1,0-1.38.07a6.87,6.87,0,0,1-1.83,0,11.22,11.22,0,0,1-1.54-.23c-.43-.2-1.28-.62-1.28-.62L65,50l-.26,1,1,1.6.88,0,0,.56.36.13-.07,1,.79.69.16.82-1.11.88-.62,0-.29.66-.69.26h-.69l-.13-.23-.49.26h-1l-.62.62.07,1.08.29.1a5.43,5.43,0,0,0-1,.79l.36.49-.1.82-.33.49s-.77.2-.88.72.21.9.2,1.21a10.21,10.21,0,0,0,0,1.74c.08.33.33,1.44.33,1.44s-.9.43-1,.95a1.63,1.63,0,0,1-.66,1c-.31.21-.47.49-.62.39s-.18.2-.46.23-.77.16-.88-.2a9.45,9.45,0,0,0-.59-1.18l-.46-.16L56,68.08l-.92.49s1.13-.08,1,.1a1.38,1.38,0,0,1-.33.33,15.75,15.75,0,0,1-1.83-.29,2.62,2.62,0,0,0-.39-.59c-.15-.11-.52.1-.62.39a1.78,1.78,0,0,1-.66.88c-.28.15-1.2.25-1.67.82s-1.67.33-1.67.33l.72,1,.69-.2.36.26-.1.52-3,1-1.28-.46-.72.29-.23-.23.26-.33-.23-.26-1.08.36-.46.59h-.52l-.26,1L42.3,75,41,75.22l-.66,3,.52,1.08-.36,1.77a2.63,2.63,0,0,1-.56,1l.95.82-.82,1L32,86.35l-3.41-.59-2.29.72-.39.23-.1.59-.29.26-3.8-.95-7.34.82L3.49,83.77l6.26-7.83-.07-.85.23-.33a4.39,4.39,0,0,0-.16-1.54c-.23-.56-.26-1-.36-1.18a1.63,1.63,0,0,0-.66-.52l-5.4-.62s-.36-1.7-.36-2A8.68,8.68,0,0,0,3,66.31L3.42,65A39.33,39.33,0,0,0,2.18,60a9.76,9.76,0,0,1-.69-2.52l.23-.72,1.57-1.51,0-.59.56-.23-1.74-.23-.79-.52-.16-1,.2-.79L1,49.64s.56-1.49,1.08-1.7H3.72l-1.24-1.8L3.19,46l.49-.69.56,0s.33-1.15.39-1.47.16-1.18.16-1.18l.52-1.24-.46-.66.23-.39-.16-.23.16-.29.43,0,.07-.95.51-.66Z" transform="translate(-0.5 -11.93)"/></svg>