<svg id="Layer_3" data-name="Layer 3" xmlns="http://www.w3.org/2000/svg" viewBox="0 0 84.17 97.65"><defs><style>.cls-1{fill:none;stroke:#000;stroke-linecap:round;stroke-linejoin:round;}</style></defs><title>californiaSvg</title><path class="cls-1" d="M24.06,45.35c-.13,0,0,.13,0,.13-.5.31-.45.41-.89.15-.27-.16-.44-.47-.69-.64s-.15-.21-.3-.24-.14.29-.33.22-.31-.44-.42-.61a1.25,1.25,0,0,0-.67-.56l-.48-.23c-.09,0-.54.4-.61.37s.29-1.82.24-2.1c-.12-.68-.64-1-.94-1.55-.59-1.14-1.67-1.73-2.45-2.69a18.76,18.76,0,0,0-1.85-2.08c-.57-.53-1.09-.95-.85-1.71a2.35,2.35,0,0,0-.33-2.13,2.13,2.13,0,0,1-.3-1.48c-.29-.23-.28-.66-.29-1l-.51.19c.22-1,.64-2.22.16-3.22.45-.26.5-.25.31-.77A8.23,8.23,0,0,0,12,23.89c-.29-.46-.87-.72-1.12-1.15-.05-.09,0-.3-.06-.42-.18-.32-.43-.41-.71-.62a8,8,0,0,1-1-.89c-.48-.5-.39-1-.53-1.6a3.23,3.23,0,0,1-.05-1.86,11.75,11.75,0,0,1,1.06-2.16,13.78,13.78,0,0,0,.93-2,1.7,1.7,0,0,0,.13-1c-.09-.35-.39-.56-.41-.93s.36-1.09.47-1.59S11,8.57,11.13,8a6.46,6.46,0,0,0-.73-3,4.66,4.66,0,0,0-.47-.68c-.27-.41-.29-.19-.21-.72,0-.13.52-1.86.34-1.86L40,1.77a6.06,6.06,0,0,0,.35,2.32c.64-.44.68-.4.78-1.12.06-.47.43-.8.44-1.26.51,0,2-.11,2.33.19.14.11.11.31.13.54a61.92,61.92,0,0,1-.14,7.22l-.35-.42c0,.57.4.8.51,1.25a6,6,0,0,1,0,1.32V17L44,29a14.23,14.23,0,0,1,0,1.6c0,.07,0,.19,0,.26-.16.38-.77.24-.61.81-.64.06-1,1.31-.26,1.29a2.79,2.79,0,0,0,.19,1.16A1,1,0,0,0,44.5,34q10.18,9.06,20.12,18.36c7.39,6.94,14.89,13.79,22,21,.25.26.74.59.9.92s-.06.85.07,1.22A5.63,5.63,0,0,0,88.66,77a2.39,2.39,0,0,1,.47.89c.09.28.29.57.36.81s-.09.65,0,.88.71.38,1,.57,1,.73,1.11,1.05-.25.63-.53.94c-.45.5-1.3.61-1.67,1.13-.24.34-.4,1.39-1,1.46.6.94,0,2.17,0,3.16,0,.75.05.6-.41,1.15s-.32.78-1.11.93c.48.39-.08.8.06,1.29.61-.2.18,1.17.19,1.46,0,1,.41.69,1.07.89.82.25,1,1.14.65,1.89a9,9,0,0,1-.46.87,1.18,1.18,0,0,1-.53.13c-.3,0-.57-.12-.84-.08a5.28,5.28,0,0,0-.53.23,5.18,5.18,0,0,1-1,.14L71.85,97.94l-4.5.38c0-.59.18-1.2-.45-1.43-.17-.06-.31.1-.48,0s-.05-.53-.07-.71-.22-.54-.24-.8a6.7,6.7,0,0,1,.13-.77A3.7,3.7,0,0,0,65.91,93a8.2,8.2,0,0,0-1.59-2.44,3.92,3.92,0,0,0-.62-.48c-.23-.17-.37-.42-.56-.57a5.31,5.31,0,0,1-.81-.61,3.67,3.67,0,0,0-1.1-.86,4.23,4.23,0,0,1-1.14-.68c-.2-.18-.44-.78-.62-.88s-1,.11-1.31.15c0,.8-1.1.06-1.21-.28s.06-.85,0-1.24a2.81,2.81,0,0,0-.21-.53,1.22,1.22,0,0,0-1-.75c-.39-.07-1.8-.1-2,.32-.24-.36-.57-.36-1-.48s-.57-.31-.85-.39-.49,0-.69,0c-.93-.29-.83-1.21-1.42-1.73a10.74,10.74,0,0,0-1.13-.9,4.58,4.58,0,0,0-1.1-.62c-.44-.09-.78.28-1.19.29s-.61-.41-1.09-.1c-.33-.38-1.45-.52-2-.62a10.07,10.07,0,0,0-3,.2,1.45,1.45,0,0,0-.62-1c-.57-.35-.76-.2-.62-1,.09-.55-.1-1,0-1.46,0-.31.14-.38.08-.69s-.33-.51-.32-.9c0-.69.54-1.33-.07-2-.39-.4-.76-.09-1.22-.33-1.27-.65.31-1.8-.65-2.51-.57-.43-1.1-.42-1.58-1.08-.31-.41-.41-.79-.87-1s-.75-.2-.95-.8c-.11-.33,0-.51-.29-.81s-.78-.6-1-1.15a1.87,1.87,0,0,0-.39-.74c-.15-.16-.38-.22-.51-.39s-.3-.73-.52-1c-.42-.6-1.05-.85-1.56-1.36a2.91,2.91,0,0,1-.71-1.72c-.05-.29,0-.67-.08-.93s-.23-.45-.21-.55c.1-.6.81-.09,1.13-.56.2-.29.11-.78.22-1.13a2.91,2.91,0,0,1,.5-.93c-.46.38-.56,0-.71-.39-.26-.59-.33-.89-1-.87s-.82.35-1.29.13-.78-.79-1.1-1.12a7,7,0,0,1-1.09-1.11,2.9,2.9,0,0,1-.31-1.65c0-.77-.5-1.18-.75-1.86s.05-1.3,0-1.94c-.05-.42-.12-1,.53-.91s.41,1.18.62,1.64.86.77,1.28,1.08a6,6,0,0,0,1.14.77c.33.15.81.28.65-.14,0-.12-.58-.38-.69-.51a2.61,2.61,0,0,1-.42-.7A3.61,3.61,0,0,0,26.15,47c-.11-.12-.82-.48-.13-.58-.09-.3-.76-.5-.94-.63S24.65,45.29,24.06,45.35Z" transform="translate(-7.91 -1.17)"/></svg>