<svg id="Layer_1" data-name="Layer 1" xmlns="http://www.w3.org/2000/svg" viewBox="0 0 100 100"><defs><style>.cls-1{fill:none;stroke:#000;stroke-linecap:round;stroke-linejoin:round;stroke-width:5px;}</style></defs><title>cApis</title><path class="cls-1" d="M39.45,18.23A36.88,36.88,0,0,0,19.71,32.58"/><path class="cls-1" d="M80.29,32.59A36.88,36.88,0,0,0,60.54,18.23"/><path class="cls-1" d="M79.24,75.87a36.65,36.65,0,0,0,7.57-22.36q0-.43,0-.86"/><path class="cls-1" d="M37.81,88.25a37,37,0,0,0,24.39,0"/><path class="cls-1" d="M13.2,52.63q0,.44,0,.87a36.65,36.65,0,0,0,7.57,22.36"/><circle class="cls-1" cx="50" cy="16.7" r="10.66"/><circle class="cls-1" cx="85.01" cy="42.15" r="10.66" transform="translate(-8.86 28.3) rotate(-17.98)"/><circle class="cls-1" cx="14.99" cy="42.13" r="10.66" transform="translate(-29.71 43.37) rotate(-72)"/><circle class="cls-1" cx="28.38" cy="83.3" r="10.66" transform="translate(-55.71 57.35) rotate(-54.03)"/><circle class="cls-1" cx="71.62" cy="83.3" r="10.66" transform="translate(-35.27 57.96) rotate(-35.97)"/></svg>