<svg id="Layer_1" data-name="Layer 1" xmlns="http://www.w3.org/2000/svg" viewBox="0 0 100 100"><defs><style>.cls-1{fill:none;stroke:#000;stroke-linecap:round;stroke-linejoin:round;stroke-width:5px;}</style></defs><title>cGithub</title><circle class="cls-1" cx="50" cy="50" r="46.67"/><path class="cls-1" d="M27.71,37.16a12.84,12.84,0,0,1,0-12.5,15.84,15.84,0,0,1,11.13,5"/><path class="cls-1" d="M39.64,95.43V75.13A6.55,6.55,0,0,1,43,69.38"/><ellipse class="cls-1" cx="50" cy="48.89" rx="26.75" ry="21.22"/><path class="cls-1" d="M72.29,37.16a12.84,12.84,0,0,0,0-12.5,15.84,15.84,0,0,0-11.13,5"/><path class="cls-1" d="M60.36,95.43V75.13A6.55,6.55,0,0,0,57,69.38"/><path class="cls-1" d="M39.64,78.46s-7.29,2-11.76-1.81c-3.63-3.06-4.17-8.85-9.15-8.85"/></svg>