<svg id="Layer_1" data-name="Layer 1" xmlns="http://www.w3.org/2000/svg" viewBox="0 0 100 100">
  <defs>
    <style>
      .fillColor {
        fill: #fff
      }
    </style>
  </defs>
  <title>f_fb_icon</title>
  <path class="fillColor" d="M54.39,50.31V76.6a.68.68,0,0,1-.68.68H43.48a.68.68,0,0,1-.68-.68v-26a.67.67,0,0,0-.67-.67H37.84a.52.52,0,0,1-.52-.52v-8.3a.52.52,0,0,1,.52-.52h4.29a.67.67,0,0,0,.67-.67V34.56s.08-4.75,2.09-7.72,5.11-4.22,10.86-4.1l6.41.15a.52.52,0,0,1,.5.52v8.15a.52.52,0,0,1-.52.52h-5a3.09,3.09,0,0,0-3.09,3.09v4.68a.6.6,0,0,0,.6.6H62a.43.43,0,0,1,.43.47l-.79,8.72a.43.43,0,0,1-.42.39l-6.64.08A.23.23,0,0,0,54.39,50.31Z"/>
</svg>
