<svg id="Layer_1" data-name="Layer 1" xmlns="http://www.w3.org/2000/svg" viewBox="0 0 100 100">
  <defs>
    <style>
      .fillColor {
      fill: #fff
      }
    </style>
  </defs>
  <title>f_insta_icon</title>
  <g>
    <path class="fillColor" d="M50,64.67A14.67,14.67,0,1,1,64.67,50,14.68,14.68,0,0,1,50,64.67Zm0-24.33A9.67,9.67,0,1,0,59.67,50,9.68,9.68,0,0,0,50,40.33Z"/>
    <path class="fillColor" d="M62,78.33H38A16.39,16.39,0,0,1,21.67,62V38A16.39,16.39,0,0,1,38,21.67H62A16.39,16.39,0,0,1,78.33,38V62A16.39,16.39,0,0,1,62,78.33ZM38,26.67A11.39,11.39,0,0,0,26.67,38V62A11.39,11.39,0,0,0,38,73.33H62A11.39,11.39,0,0,0,73.33,62V38A11.39,11.39,0,0,0,62,26.67Z"/>
    <circle class="fillColor" cx="65.25" cy="34.88" r="3.5"/>
  </g>
</svg>
