<svg id="Layer_1" data-name="Layer 1" xmlns="http://www.w3.org/2000/svg" viewBox="0 0 100 100">
  <defs>
    <style>
      .fillColor {
      fill: #fff
      }
    </style>
  </defs>
  <title>f_twitter_icon</title>
  <path class="fillColor" d="M48.36,40.42A36.8,36.8,0,0,1,23.14,27.54a.52.52,0,0,0-.87.1c-1,2.14-3.5,8.87,2.92,15.42a.53.53,0,0,1-.48.88,11.93,11.93,0,0,1-3.07-1,.52.52,0,0,0-.74.48c0,2.18.87,8,8.31,11.23a.53.53,0,0,1-.16,1,9.59,9.59,0,0,1-2.83-.22.52.52,0,0,0-.61.67c.65,2,3,6.82,10.3,8.3a.52.52,0,0,1,.24.91c-1.81,1.52-6.83,4.88-15.61,4.73a.52.52,0,0,0-.25,1,38.37,38.37,0,0,0,31.27,2c18.11-6.9,23.64-26.16,23-35.36a.51.51,0,0,1,.18-.43,45.8,45.8,0,0,0,5.18-5.05.52.52,0,0,0-.57-.83,33.23,33.23,0,0,1-3.39.93.52.52,0,0,1-.47-.89A12.94,12.94,0,0,0,78.64,27a.53.53,0,0,0-.73-.66c-1.66.84-4.83,2.31-6.6,2.32a.5.5,0,0,1-.36-.16c-1.1-1.12-8.52-8-17.88-.62-4.6,3.62-4.36,10-4.15,12A.53.53,0,0,1,48.36,40.42Z"/>
</svg>
