<svg id="Layer_1" data-name="Layer 1" xmlns="http://www.w3.org/2000/svg" viewBox="0 0 100 100">
  <defs>
    <style>
      .fillColor {
      fill: #fff
      }
    </style>
  </defs>
  <title>f_yt_icon</title>
  <path class="fillColor" d="M82.23,36.44c-1-8.6-6.85-8.93-11.72-9.14C63.45,27,50,26.77,50,26.77s-13.45.23-20.51.53c-4.87.2-10.75.54-11.72,9.14A104.49,104.49,0,0,0,17,50a104.49,104.49,0,0,0,.76,13.56c1,8.6,6.85,8.93,11.72,9.14,7.05.29,20.51.53,20.51.53S63.45,73,70.51,72.7c4.87-.2,10.75-.54,11.72-9.14A104.49,104.49,0,0,0,83,50,104.49,104.49,0,0,0,82.23,36.44ZM43.18,58.61V40L60.94,49.3Z"/>
</svg>
