<svg id="Layer_1" data-name="Layer 1" xmlns="http://www.w3.org/2000/svg" viewBox="0 0 99 99"><defs><style>.cls-1{fill:none;stroke:#000;stroke-linecap:round;stroke-linejoin:round;}</style></defs><title>globeSvg</title><circle class="cls-1" cx="49.5" cy="49.5" r="49"/><path class="cls-1" d="M39.27,32.91c-.18.23-.5.37-.52.66a1.13,1.13,0,0,0,.14.53,6.18,6.18,0,0,0,.81,1.45,1.51,1.51,0,0,1,.25.36,1.05,1.05,0,0,1,0,.6,8.15,8.15,0,0,0-.44,2.23.36.36,0,0,0,.16.31A.39.39,0,0,0,40,39l2.3-1.15c.42-.21.9-.51.9-1s-.44-.75-.79-1a2.54,2.54,0,0,1-1-1.38c-.09-.42-.52-1.37-.56-1.8C40.9,32.65,39.79,32.24,39.27,32.91Z" transform="translate(-0.5 -0.5)"/><path class="cls-1" d="M37.59,35.41a1.14,1.14,0,0,0-.5,1A3.83,3.83,0,0,1,37,37.6c-.08.22-.24.46-.15.68a.58.58,0,0,0,.55.28,1.56,1.56,0,0,0,.43-3.07" transform="translate(-0.5 -0.5)"/><path class="cls-1" d="M89.25,79.14c-.55-.09-1.5.73-2.05.64-1.07-.17-1.75-1.26-2.81-1l0-1.1c1-2.31,2.69-3.65,4.43-5.51a13.4,13.4,0,0,0,2.46-2.76c.36.32,1.13.08,1.26.55a7.44,7.44,0,0,1,.1.78,3.72,3.72,0,0,0,.69,1.43" transform="translate(-0.5 -0.5)"/><path class="cls-1" d="M46.91,45.39a1.11,1.11,0,0,0-.12.62.41.41,0,0,0,.46.34.45.45,0,0,0,.26-.24.63.63,0,0,0,0-.52.4.4,0,0,0-.42-.25" transform="translate(-0.5 -0.5)"/><path class="cls-1" d="M47.58,47.3a.11.11,0,1,0,.21,0" transform="translate(-0.5 -0.5)"/><path class="cls-1" d="M66.13,21.43c-1.31-1-2-1.75-1.55-3.42.4-1.47.88-2.49,2.56-2.67,1-.1.91.62.26,1.16s-1.26.58-1.72,1.25A2.87,2.87,0,0,0,66.13,21.43Z" transform="translate(-0.5 -0.5)"/><path class="cls-1" d="M74.08,13.41a.91.91,0,0,1,.26.31" transform="translate(-0.5 -0.5)"/><path class="cls-1" d="M72.73,12.92a1.54,1.54,0,0,0-.49-.4" transform="translate(-0.5 -0.5)"/><path class="cls-1" d="M70.83,11.42a1.92,1.92,0,0,1-.57-.43" transform="translate(-0.5 -0.5)"/><path class="cls-1" d="M83.46,17.23a1.39,1.39,0,0,0,.62.44" transform="translate(-0.5 -0.5)"/><path class="cls-1" d="M49.2,12.87c-.39-.57-.49-.06-.81,0-.08,0-.63-.15-.64,0,0,.44,1,1,1.17,1.47.09.23,0,1.27.46,1,.19-.09.25-1.1.3-1.3C49.79,13.48,49.93,13.16,49.2,12.87Z" transform="translate(-0.5 -0.5)"/><path class="cls-1" d="M52,12.33a7.19,7.19,0,0,1-1.73,0" transform="translate(-0.5 -0.5)"/><path class="cls-1" d="M51.28,14.12a.23.23,0,0,0-.06.27c.1.2.42.14.61.27" transform="translate(-0.5 -0.5)"/><path class="cls-1" d="M57.75,11.31h.1" transform="translate(-0.5 -0.5)"/><path class="cls-1" d="M58.91,11.52a.79.79,0,0,0,.62.38" transform="translate(-0.5 -0.5)"/><path class="cls-1" d="M60.47,11.63v.05" transform="translate(-0.5 -0.5)"/><path class="cls-1" d="M62.2,11.31a.14.14,0,0,0,.15-.16" transform="translate(-0.5 -0.5)"/><path class="cls-1" d="M35.67,24.83c-.29-.15-.91,0-1,.33,0,0,.26.62.26.62.33.94.86,1.1,1.87.7.52-.2,2.28-.85,2-1.7s-1-.19-1.38,0A2.7,2.7,0,0,1,35.67,24.83Z" transform="translate(-0.5 -0.5)"/><path class="cls-1" d="M25.85,30.94c.39-1.48.75-3.23,1.93-4.32s2.46-1.1,3.46-2.13a10.14,10.14,0,0,1,2.09-1.39c.34-.22,1.77-1,1.48-1.45-.15-.22-2.08-.46-.9-1.28.7-.48,1.09.66,1.73.38s0-1.08-.32-1.35c-.64-.55-1.2-1-.29-1.72.61-.45,1.5-.38,2.14-.78a1.37,1.37,0,0,0,.63-.68c.11-.49-.17-.43-.33-.77-.52-1.09.42-3.85,1.32-4.64.31-.27,1.59-.91.79-1.34-.61-.33-2,.56-2.45.9a1.34,1.34,0,0,0-1.19-.72,5.42,5.42,0,0,0,1.44-.87c-1.37-1.91-4.6.43-5.53,1.67s-1.19.34-2.23.33-2.46,1.1-3.37,1.58c.39-.48,1.11-1.67.15-2-.66-.25-1.32.82-1.82,1.13-1.23.76-3.09,1-3.78,2.39a1,1,0,0,0,.78.11c-.25.23-1,1.13-1.28,1.16-.63.06-.24-.61-.66-.86-.45.47-1.77,1.62-1.48,2.38.18.48,1.56.57,2,.4.66-.25,1.13-1.3,1.66-1.76A5.91,5.91,0,0,1,24.42,14c-.32,1.08-1.62,1.36-2.23,2.21a1.17,1.17,0,0,0,.77,2c.45,0,.9-.44,1.33-.2s.45,1,.46,1.42a5.39,5.39,0,0,1-.29,1.82c0,.14-.26.46-.23.61s.24.14.4.32.61.56.29,1-.93,0-1,.45.59.73.58,1.15-.54.66-.71,1c-.53,1.06,0,2.33.29,3.37C24.18,29.5,25.17,32.41,25.85,30.94Z" transform="translate(-0.5 -0.5)"/><path class="cls-1" d="M19,18.29a6.28,6.28,0,0,1-1.43.54" transform="translate(-0.5 -0.5)"/><path class="cls-1" d="M18.27,20.13a4.87,4.87,0,0,1-2.09.39.38.38,0,0,0-.28.06c-.07.07,0,.23.06.21" transform="translate(-0.5 -0.5)"/><path class="cls-1" d="M16.08,19.32v-.1" transform="translate(-0.5 -0.5)"/><path class="cls-1" d="M16.32,17.63a.21.21,0,0,0-.16-.31.25.25,0,0,1-.1,0s0-.07,0-.08" transform="translate(-0.5 -0.5)"/><path class="cls-1" d="M15,19.66c-.14-.09-.3.07-.39.2" transform="translate(-0.5 -0.5)"/><path class="cls-1" d="M12.57,21a3.15,3.15,0,0,1-1.51-.07" transform="translate(-0.5 -0.5)"/><path class="cls-1" d="M13.67,18.49h-.13a1.41,1.41,0,0,0,.54-.81l.49-1.33" transform="translate(-0.5 -0.5)"/><path class="cls-1" d="M17.91,21.64c-.52.74.52,1.39.95,1.81.72.71.43,1.13.27,2s.53,1.1.73,1.9c.29,1.16-.67.91-1.28.43A5.67,5.67,0,0,1,17,25.68c-.43-.89-.48-1-1.41-.69-2.71.82-.53-2.32.39-3,.19.62.16,1.19.83.82A6.28,6.28,0,0,0,17.91,21.64Z" transform="translate(-0.5 -0.5)"/><path class="cls-1" d="M14,22.43a.86.86,0,0,0-.46.35l-.6.73" transform="translate(-0.5 -0.5)"/><path class="cls-1" d="M12.49,23.42a1.24,1.24,0,0,0-.22.77" transform="translate(-0.5 -0.5)"/><path class="cls-1" d="M12.91,24.6a2.41,2.41,0,0,1,0,.92c-.07.31-.24.67-.56.68" transform="translate(-0.5 -0.5)"/><path class="cls-1" d="M9.76,22c.39-.22.25,1,.29,1.06a1.34,1.34,0,0,0,1,.9c-.63,1-.06,3-1.23,3.56a3.94,3.94,0,0,1-1,.18c-.72,0-.3.22-.71-.27s.16-1.65-.64-1.91" transform="translate(-0.5 -0.5)"/><path class="cls-1" d="M16.62,28.15c-.67.07-.78.53-1.21.92-.25.23-1.11.42-.7.92s.93-.08,1.31,0c.69.09.67.61,1.07,1.06s.42.54.62.11c.07-.16-.27-.86-.19-1s.18-.13.22-.17.3.12.43-.16-.25-.57-.33-.69c-.23-.34-.65-1.06-1.14-1" transform="translate(-0.5 -0.5)"/><path class="cls-1" d="M1,49.48a30.06,30.06,0,0,0,2.16,4.78c.82,1.62,1.31,3.35,2.09,5S7.07,61.3,8.51,62,10.64,64.51,12,65.4c.72.49,1.47.31,1.86,1.15a9.19,9.19,0,0,1,.42,2.56c.28,1.89,1.55,3.29,2.75,4.69a39.17,39.17,0,0,1,3.6,4.07c.86,1.35,1.35,2.9,2.16,4.28a11.27,11.27,0,0,0,1.78,2.12,8.6,8.6,0,0,1,1.27,2.51A5.13,5.13,0,0,0,30.11,90c-.5-.61-.87-1.31-1.33-2-.31-.44-.77-.82-1.05-1.25a2.2,2.2,0,0,1,0-2.36c.34-.6.93-1.05,1.21-1.69s.12-1.15.42-1.62c.66-1,2.3-.5,2.5-2s-1.33-2.49-.29-3.77a5.64,5.64,0,0,0,.92-1.46c.35-.81.7-1.12-.13-1.66-1.08-.69-2.47-.73-3.64-1.21C27.3,70.5,26,69.52,24.4,69.67c1.84-1.93-3.19-3.49-4.19-4-1.37-.73-5.15-2.91-6.3-.84-.45-.71-1.14-.5-1.63-1s0-1.09-.28-1.53-.6-.22-.93-.39a1.69,1.69,0,0,1-.85-.87c-.21-.44-.1-1.65-.54-1.92-.78-.49-.46.81-1,1-.72.3-1.16-.5-1.34-1.05C7,58,7.19,54.41,9,54.52c.85.05.89,1.05,1.13,1.65s1.39,1.61,1.25.28c-.07-.67-.53-1.24-.6-1.91-.1-.91.48-1.49.94-2.2.83-1.25.55-2.89,1.52-4a3.71,3.71,0,0,0,.83-1.65,2.8,2.8,0,0,1,1.52-1.74l.16.66a5.4,5.4,0,0,0,1.71-1.15c-1.34-.1-.47-.78-.69-1.47-.39-1.23-1.79-.15-2.25.36-.05-.89.74-1.45,1.42-1.84.48-.27,1.77-1.33,2.32-1.07s0,1.05.18,1.36a4.59,4.59,0,0,0,.92.4c1,.34,1.35-.33.87-1.17-.21-.37-.65-.64-.82-1q-.6-.34-.06-.59a2.39,2.39,0,0,0,.42-.53c.41-.92-.34-1-1-1.48-1.5-1.06-.28-3.3-1.47-4.52-.12.61-1,3.23-1.43,1.54a6.75,6.75,0,0,0-.32-1.71,1.45,1.45,0,0,0-.52-.61c-.46-.23-.34-.16-.66.12-1.38,1.23-.63,6.38-3.26,5.82s-1.4-4.3-.27-5.65c.42-.5.92-.92,1.34-1.42a4.5,4.5,0,0,0,.66-1.32c.23-.54,2.24-2.54,1.36-3.2-.31.53-1,1.59-1.68,1.43-.22-.06-.07-.43-.55-.39-.31,0-.75.5-1,.65a5.75,5.75,0,0,1-2.62,1A3.44,3.44,0,0,1,6.31,27.8" transform="translate(-0.5 -0.5)"/><path class="cls-1" d="M91.2,23.65c-1.49.08-2.27-1.51-3.23-2.37-.51-.45-2-1-2.55.09a4,4,0,0,0-2.64-2.15,7.39,7.39,0,0,0-1.73-.15c-.73,0-.75.06-1-.63A4.45,4.45,0,0,0,78.48,16c-.77-.49-2-.39-2.55-1.21l-.1,1.41c-1.29-.53-2.3,2.37-1.38,2.73a1.14,1.14,0,0,0-.86.17l1,1.56c-.35-.22-1.6-1.29-2-1.16-.61.18-.59,1.53-.56,2A13,13,0,0,1,70.6,19a4.7,4.7,0,0,0,.57,5.09L68,22c.14,1.4-2,1-2.78,1.21-1.05.24-1.57,1.22-2.47,1.72a8.54,8.54,0,0,0-1.31.6c-.39.31-.5.86-.89,1.16-1.07.83-1.93-.5-2.29-1.36l2.7,0c0-1.68-3.33-2.61-4.56-3-1.92-.57-4.24-.59-5.8.85l.14-.12c-1.92,1-1.61,3.53-3.08,4.82-.73.64-1.56.29-1.93,1.41A3.14,3.14,0,0,0,46,32.09c.86.91,1.33-.3,2.15,0s.93,1.65,1.15,2.21c.32.81,1.1,1.22,1.51.19.33-.84,0-1.51.57-2.31.25-.35.59-.66.53-1.13s-.54-.75-.56-1.28c0-.92,1.1-1.84,1.67-2.43.37-.38,1.82-1.8,1.86-.34,0,.77-1.08,1.44-1.29,2.22s-.12,1.91.91,1.94c.69,0,1.6-.89,2.27-.54a.54.54,0,0,1,.12.91c-.35.4-.95.21-1.39.33s-.66.17-.81.52.18.67.08,1c-.17.56-.52.32-.92.5s-.37.47-.6,1c-.36.75-1.47,1-2.21,1.2-.91.27-2.17.61-3-.08a1.29,1.29,0,0,1-.25-1.81c-1.11-.57-1.17,1.29-1.23,1.83-.12,1-1,.94-1.67,1.58a11.35,11.35,0,0,1-2.52,2c-.77.39-2.22.48-2.73,1.21.8.39,1.76.87,2,1.8a1.56,1.56,0,0,1-1.07,1.87c-.87.31-2.16-.57-2.85-.17s-.19,1.38-.35,2c-.22.81-.58,1.54.09,2.26a2.53,2.53,0,0,0,2.27.6,6.4,6.4,0,0,0,2.3-.66c.79-.46.79-1,1-1.78a4.75,4.75,0,0,1,1.33-2.27c.72-.68,1.25,0,2.12-.21.7-.19,1-.95,1.6-.31.26.27.23.58.59.82a6.4,6.4,0,0,0,.93.35A2.92,2.92,0,0,1,51,46.73c.23.52.78,1.71,1.46.9.94-1.13-2.18-3.93-2.88-4.6,1.09-.66,2.64,1.49,3.15,2.19a33.37,33.37,0,0,1,1.74,3.28c.26.45.61,1.09,1.09.74s.33-1.1.21-1.55-.56-1.18.08-1.53,1.19.39,1.43.87c.55,1.1.24,2.83,1.78,3a10,10,0,0,0,2.23-.22c.38-.06,1.31-.47,1.6-.18.47.48-1,3.06-1.5,3.22s-1.27-.19-1.84-.13a3.74,3.74,0,0,1-2.12-.15c-.94-.38-2.48-1.27-3.53-.74s0,1.92-1.58,1.49c-1.06-.28-1.39-1.41-2.42-1.68-.86-.23-2-.23-1.62-1.39.1-.34.57-.12.37-.65-.09-.23-.38-.28-.57-.33a7.33,7.33,0,0,0-2,.12,18,18,0,0,0-3.6.41,11.23,11.23,0,0,1-2.14.59c-.67,0-1.32-.35-1.88.09a6.15,6.15,0,0,0-1.74,2.07,5.8,5.8,0,0,1-.46,1.4c-.35.48-.85.43-1.29.75-.77.56-.68,1.71-1.12,2.49a7.13,7.13,0,0,0-1,1.6,5.83,5.83,0,0,0,0,1.5c0,1.11-.84,2.36-.29,3.43.46.88,1.57,1.42,2.2,2.18a5.38,5.38,0,0,0,2.21,2,11.67,11.67,0,0,0,4.05.29c1.16,0,2.41-.44,3.54-.36.76.06,1.17.64,1.84.9.31.12,1,0,1.14.11.6.55-.27,1.86-.27,2.49,0,1.11,1,1.22,1.65,1.91a4.62,4.62,0,0,1,.78,3.47c-.33,1.32-1.35,1.91-.42,3.3a17.72,17.72,0,0,1,1.64,3.11,5.34,5.34,0,0,0,.88,1.71c.39.37.14.35.63.29a5,5,0,0,0,.59-.22,11.76,11.76,0,0,1,3-.16,3.74,3.74,0,0,0,2.64-.8,11.86,11.86,0,0,0,1.84-3.34,6.27,6.27,0,0,1,2.05-2.52c.67-.48,1.54-.93,1.83-1.76.43-1.24-.39-2.39.3-3.65A15,15,0,0,1,66.94,70c1.64-1.79,4.08-3.78,4.41-6.33-.82.57-3,1.58-4,.9-.48-.33-.58-1.09-1.05-1.5A6.63,6.63,0,0,1,65,61.92a22.23,22.23,0,0,1-1.88-4.22l-1-2.48c-.21-.5-.73-1.27-.66-1.83a14.73,14.73,0,0,1,2.2,2.74,32,32,0,0,1,2,2.89,17.92,17.92,0,0,1,1,2.92c.17.54,0,1.78.64,1.92.52.11,2-1.16,2.58-1.39A10.74,10.74,0,0,0,73,61c.73-.6,1.68-.9,2-1.83s-.28-1.2-.94-1.75c-.9-.75-1.33-1.57-2-1.32s-1.13.55-1.32.08c-.31-.74-1-1.67-.7-2.54.41-1.31,1.4,0,1.79.65,1.33,2.07,2.94,2,5.21,1.54,1-.18,1.67-.2,2.12.78.17.38,0,.61.38.93a1,1,0,0,0,1.09-.07c-.11,2.57.78,4.69,1.44,6.83a11.39,11.39,0,0,0,1.24-2.63,15.48,15.48,0,0,1,.67-2.24C84.63,58,86.4,57.27,87.39,56c0,1,1,2,.44,3,.18,0,.38.12.57.12,0,1.11-.35,2.14-.39,3.21a4,4,0,0,0,1.07,2.55c.89-1.29-.19-3,.72-4.33a3.08,3.08,0,0,0,.78,1.14c1-1.52.57-3.45.83-5.15s1.72-2.52,2.14-4.14a9.31,9.31,0,0,0-.16-5.4c-.09-.2-.9-1.75,0-1.61.46.08.86,1.51.92,1.81.1.49.43,1.89,1.15,1.4s0-1.79-.17-2.29a9.2,9.2,0,0,1-.45-2.5c0-1-.05-2-.09-3a25.88,25.88,0,0,0-1.07-5.69c-.48-1.78.21-3.91.66-5.65" transform="translate(-0.5 -0.5)"/><path class="cls-1" d="M88.84,66.67s.73,1.45,2.3-.62" transform="translate(-0.5 -0.5)"/><path class="cls-1" d="M91.62,64.53a7.06,7.06,0,0,1,1-1.81" transform="translate(-0.5 -0.5)"/><path class="cls-1" d="M93.69,61.28a3.21,3.21,0,0,0-.66-3" transform="translate(-0.5 -0.5)"/><path class="cls-1" d="M11.05,58.69s.81-.21,1.41.94,1,1.31,1.67,1.31" transform="translate(-0.5 -0.5)"/><line class="cls-1" x1="13.57" y1="58.4" x2="14.16" y2="58.71"/><line class="cls-1" x1="14.9" y1="60.02" x2="15.37" y2="59.66"/><path class="cls-1" d="M67.43,75.44s0,2.51-1.26,3.46" transform="translate(-0.5 -0.5)"/><path class="cls-1" d="M32.36,95.72,41,94c2.63-.52,3.8.42,7.77,0s6.9-.63,11.72-1.26,4.92.73,7,0,6.91-.17,6.91-.17" transform="translate(-0.5 -0.5)"/><path class="cls-1" d="M43.22,1.47a15.6,15.6,0,0,0,3.57,2.88c2.27,1.36,5.31-.1,7.61,0s5.24,1.06,6.07.58,4-1.77,4-1.77" transform="translate(-0.5 -0.5)"/></svg>