<svg id="Layer_1" data-name="Layer 1" xmlns="http://www.w3.org/2000/svg" viewBox="0 0 1711.14 200.67">
  <defs>
    <style>
      .cls-1 {
        fill: #fff;
      }

      .cls-2 {
        fill: #2ede72;
      }
    </style>
  </defs>
  <title>kickstarter_logo_light</title>
  <g>
    <rect class="cls-1" x="176" y="4.03" width="61" height="192.38" rx="30.5" ry="30.5"/>
    <path class="cls-1" d="M198,295.49l-38.83-47.4,31.19-42.63a31,31,0,0,0-50-36.61l-36.64,50.07V186.74a31,31,0,1,0-62,0V315.41a31,31,0,1,0,62,0V278.19L150,334.78a31,31,0,0,0,48-39.29Z" transform="translate(-41.67 -151.07)"/>
    <path class="cls-2" d="M937.67,154.41H840.33a31,31,0,0,0,0,62h17.33v99a31,31,0,1,0,62,0v-99h18a31,31,0,0,0,0-62Z" transform="translate(-41.67 -151.07)"/>
    <path class="cls-2" d="M1562.5,284.38H1529v-12h27a22,22,0,1,0,0-44h-27v-9.67h33.5a31,31,0,0,0,0-62h-63.86A32.75,32.75,0,0,0,1467,189v126.4a31,31,0,0,0,31,31c.4,0,.8,0,1.2,0h63.3a31,31,0,0,0,0-62Z" transform="translate(-41.67 -151.07)"/>
    <path class="cls-2" d="M1423,154.41h-97.33a31,31,0,0,0,0,62H1343v99a31,31,0,0,0,62,0v-99h18a31,31,0,0,0,0-62Z" transform="translate(-41.67 -151.07)"/>
    <path class="cls-1" d="M645.32,295.49l-38.83-47.4,31.19-42.63a31,31,0,0,0-50-36.61L551,218.92V186.74a31,31,0,0,0-62,0V315.41a31,31,0,0,0,62,0V278.19l46.36,56.59a31,31,0,0,0,48-39.29Z" transform="translate(-41.67 -151.07)"/>
    <path class="cls-1" d="M390.18,351.74c-54.32,0-98.51-45-98.51-100.33s44.19-100.33,98.51-100.33c33.26,0,63.82,16.21,81.76,43.35a31,31,0,1,1-51.72,34.18c-6.53-9.87-17.48-15.54-30-15.54-20.13,0-36.51,17.2-36.51,38.33s16.38,38.33,36.51,38.33c12.3,0,23.1-5.45,29.64-14.94a31,31,0,1,1,51.08,35.14C452.89,336.12,422.71,351.74,390.18,351.74Z" transform="translate(-41.67 -151.07)"/>
    <path class="cls-2" d="M710.67,281.74s-17.5-13.67-34.67-2.33-13.17,30.67-9.33,38.33,18.5,25.5,40.33,29.67,47.67,4.5,70.67-8.67,26.67-39.33,26.33-48.33,2.5-26.67-15.33-45S746,223.74,738.33,219.74s-16.86-9.2-9-16.67c5-4.75,12,1.17,23.67,8.33s16.83,8.17,27.33,6.33S797,203.07,797,194.41s-2.17-23.67-23-34.33-57.83-11.83-79.33,3-29,34-26.67,57.67,15.71,35.37,29.33,42.33c14.92,7.63,35,11.19,42.17,17.81,3.93,3.65,3.19,14.69-4.33,14.35C730.61,295,720.38,290,710.67,281.74Z" transform="translate(-41.67 -151.07)"/>
    <path class="cls-2" d="M1127,302.53l-60.31-129.2,0,0q-.66-1.4-1.45-2.74l-.22-.35c-.19-.32-.39-.63-.59-.94l-.38-.55c-.16-.23-.32-.47-.49-.7l-.46-.6-.46-.59-.52-.61-.47-.54-.56-.59-.49-.51L1060,164l-.51-.48-.63-.55-.52-.44-.7-.55-.5-.39-.83-.59-.4-.28q-.58-.39-1.18-.75l-.1-.07a31.1,31.1,0,0,0-2.77-1.48h0l-.24-.1c-.37-.17-.75-.34-1.13-.5l-.68-.27-.71-.27-.92-.31-.48-.16-1.06-.3-.36-.1-1.13-.26-.33-.07-1.13-.21-.36-.06-1.08-.15-.44-.05-1-.08-.58,0-.84,0h-1.41l-.9,0-.52,0-1,.08-.39,0-1.14.15-.29,0-1.2.22-.25.05-1.21.28-.28.07-1.15.32-.37.12-1,.34-.55.21-.85.33-.85.37-.49.21,0,0q-1.39.65-2.72,1.44l-.48.3-.8.51-.63.44-.61.43-.66.51-.54.42-.65.55-.51.44-.62.58-.49.47-.58.6-.47.5-.55.63-.44.52c-.19.23-.36.46-.54.69l-.4.51c-.19.26-.38.53-.56.79l-.32.45c-.23.35-.46.71-.68,1.07l-.14.22a31.13,31.13,0,0,0-1.47,2.75l0,0L949.67,302.15a31,31,0,1,0,56.07,26.46l3.68-7.79h57.66l3.7,7.93A31,31,0,1,0,1127,302.53Z" transform="translate(-41.67 -151.07)"/>
    <path class="cls-2" d="M1286.06,299.73l-16.62-26.65c4-4.67,15.32-18.57,17.23-29.73,2.33-13.64,6.17-22.14-4.67-48s-34.83-33.17-39.62-34.61c-5.41-1.62-13-2.31-26-2.72-12.84-.41-40.67,0-40.67,0h0a31,31,0,0,0-31,31V315.7a31,31,0,1,0,62,0V289.59l26.78,42.95a31,31,0,1,0,52.61-32.81Z" transform="translate(-41.67 -151.07)"/>
    <path class="cls-2" d="M1748.1,299.73l-16.62-26.65c4-4.67,15.32-18.57,17.23-29.73,2.33-13.64,6.17-22.14-4.67-48s-34.83-33.17-39.62-34.61c-5.41-1.62-13-2.31-26-2.72-12.84-.41-40.67,0-40.67,0h0a31,31,0,0,0-31,31V315.7a31,31,0,1,0,62,0V289.59l26.78,42.95a31,31,0,1,0,52.61-32.81Z" transform="translate(-41.67 -151.07)"/>
  </g>
</svg>
