<svg id="Layer_1" data-name="Layer 1" xmlns="http://www.w3.org/2000/svg" viewBox="0 0 45.19 43.99">
  <title>linux_icon</title>
  <path d="M17.21,35.09a6.74,6.74,0,0,1,4.4-6.29,12.57,12.57,0,0,1,6.23-.28c3,.78,4.83,2.71,5.14,5.44.12,1,.26,2.08.28,3.11.09,3.65,2.18,6.53,4.65,9.21a18.25,18.25,0,0,1,5,9.77c.37,2.5-1.89,5.29-4.71,5.76a3,3,0,0,1-3.4-1.67,4.2,4.2,0,0,0-.79-.73c-.32.3-.9.59-.91.9-.06,1.16.1,2.33.13,3.5a36.22,36.22,0,0,1,0,3.7c-.08,1.08-.19,2.09,1,2.8A3.47,3.47,0,0,0,38,70.19a19.39,19.39,0,0,1,6.83-3.14c.83-.21,2-.5,1.89-1.49s-1.23-.84-2-1.05a2.56,2.56,0,0,1-1.6-4c.08.13.2.23.2.32,0,1.74,1.35,2.61,2.82,3.39a4.5,4.5,0,0,1,.55.36c1.18.87,1.2,1.39-.05,2.23A13,13,0,0,1,44.39,68a18.76,18.76,0,0,0-5.51,3.19,6.22,6.22,0,0,1-5.68.7c-.47-.22-.75-.74-1.19-1A3.15,3.15,0,0,0,30.53,70c-2.93,0-5.87-.09-8.79.1a7.15,7.15,0,0,0-3.17,1.18,4.53,4.53,0,0,1-4.15.67A60.63,60.63,0,0,0,4.12,69.44c-.54-.09-1.49-.28-1.6-.76a2,2,0,0,1,0-1.38c.08-.42.68-.86.72-1.65a8.22,8.22,0,0,0-.52-2.19c-.14-1.27.34-1.86,1.74-1.78,1.79.11,3.07-.3,3.53-2,0-.08.16-.13.25-.19A1.84,1.84,0,0,1,7,62.22a15.81,15.81,0,0,1-2.14.07,2.22,2.22,0,0,0-1.21.31c-.18.17,0,.66.08,1a3.81,3.81,0,0,0,.34.63,2.53,2.53,0,0,1-.32,3.12c-.56.59-.54,1,.42,1.2,3.71.74,7.39,1.56,11.12,2.2,2.35.41,3.88-1.21,3.2-3.25a6.81,6.81,0,0,0-1.16-2.06c-1.56-1.95-3.18-3.86-4.82-5.75-.79-.91-1.68-1.69-3.2-1.13-.14.05-.74-.41-.72-.59a8.84,8.84,0,0,1,.58-2.62c.82-1.8,1.76-3.57,2.73-5.31a18.56,18.56,0,0,1,1.8-2.56c1.1-1.37,2.33-2.66,3.38-4.06a2.87,2.87,0,0,0,.4-1.72c0-2.18-.22-4.37-.24-6.55M35.61,57.26c-1.06-.13-1-.8-1-1.4a10,10,0,0,0-2.12-7A11.33,11.33,0,0,1,31.62,47a25,25,0,0,0-1.74-3.13c-.72-1-1.19-1.91-.6-3.09.4-.81,0-1.33-1-1.55a11.24,11.24,0,0,1-1.93-.59c-1-.43-1.32-1.15-.94-2a1.53,1.53,0,0,1,2-.84c1,.36,1.11,1.07.87,1.93-.06.23.19.53.3.8.26-.22.74-.43.75-.66a6,6,0,0,0-.23-2,2.36,2.36,0,0,0-2.65-1.61,2,2,0,0,0-2,1.9c-.09.49-.14,1-.22,1.59l-2.17-.18a18.9,18.9,0,0,0-.35-1.92,1.54,1.54,0,0,0-2.19-1,2.33,2.33,0,0,0,.08,3.84c-.06-.3-.33-.54-.37-.81a4,4,0,0,1,0-1.7c.05-.17.92-.32,1.29-.19a1.41,1.41,0,0,1,.12,2.46,14.82,14.82,0,0,0-1.79,1.24.83.83,0,0,0-.25.78A4.17,4.17,0,0,0,22.18,42c1.91-.48,3.77-1.12,5.65-1.68a2.57,2.57,0,0,1,.69,0l.1.37c-2.53.94-4.95,2.21-8.17,1.91a2.87,2.87,0,0,0,3.16.77c1.12-.32,2.16-.82,3.25-1.22a11.88,11.88,0,0,1,1.26-.31l.17.34a8.23,8.23,0,0,1-.71.5c-1.31.74-2.64,1.46-3.93,2.21a2.48,2.48,0,0,1-3.31-.48L19,42.91c-.42.77-.7,1.39-1.08,2a5.14,5.14,0,0,0-1,3.44,1.79,1.79,0,0,1-.47,1.19,10.68,10.68,0,0,0-2.55,7.56c0,.27-.22.55-.27.83s-.17.73,0,.89A24.33,24.33,0,0,0,15.9,60.6c1.09.79,2.29,1.47,3.31,2.31s.94,1.75-.28,2.49l-.45.26,2,3.41c.84-.94-.14-1.77-.78-2.73,4.44,1.87,8.32,1.42,11.58-2,1.39,1.7-.87,3.25.18,4.78a2.37,2.37,0,0,0,.4-1.07c.17-2.45.26-4.9.49-7.34.06-.62.37-1.65.76-1.73C34.28,58.75,34.73,57.91,35.61,57.26Z" transform="translate(-2.41 -28.25)"/>
</svg>
