<?xml version="1.0" encoding="utf-8"?>
<!-- Generator: Adobe Illustrator 16.0.0, SVG Export Plug-In . SVG Version: 6.00 Build 0)  -->
<!DOCTYPE svg PUBLIC "-//W3C//DTD SVG 1.1//EN" "http://www.w3.org/Graphics/SVG/1.1/DTD/svg11.dtd">
<svg version="1.1" xmlns="http://www.w3.org/2000/svg" xmlns:xlink="http://www.w3.org/1999/xlink" x="0px" y="0px" width="1000px"
	 height="932.953px" viewBox="0 0 1000 932.953" enable-background="new 0 0 1000 932.953" xml:space="preserve">
<g id="Layer_1" display="none">
	
		<image display="inline" overflow="visible" width="1600" height="999" xlink:href="EC342932E722AA1D.jpg"  transform="matrix(1 0 0 1 -415 -31.6133)">
	</image>
</g>
<g id="Layer_14">
</g>
<g id="right_n_left">
</g>
<g id="top_of_blue">
</g>
<g id="bottom_middle">
</g>
<g id="orangeE">
	<g>
		<radialGradient id="SVGID_1_" cx="802.3662" cy="733.4492" r="184.2881" gradientUnits="userSpaceOnUse">
			<stop  offset="0" style="stop-color:#FF7100"/>
			<stop  offset="0.8223" style="stop-color:#FF4E00"/>
			<stop  offset="1" style="stop-color:#FF3E00"/>
		</radialGradient>
		<circle fill="url(#SVGID_1_)" cx="802.366" cy="733.449" r="184.288"/>
		<radialGradient id="SVGID_2_" cx="500" cy="209.5039" r="175.2929" gradientUnits="userSpaceOnUse">
			<stop  offset="0" style="stop-color:#00E1ED"/>
			<stop  offset="1" style="stop-color:#00BFE2"/>
		</radialGradient>
		<path fill="url(#SVGID_2_)" d="M684.289,209.503c0-101.778-82.508-184.287-184.285-184.287
			c-101.785,0-184.293,82.509-184.293,184.287c0,101.78,82.508,184.289,184.293,184.289
			C601.781,393.792,684.289,311.283,684.289,209.503z"/>
		<radialGradient id="SVGID_3_" cx="197.6338" cy="733.4492" r="184.2881" gradientUnits="userSpaceOnUse">
			<stop  offset="0" style="stop-color:#3A00D7"/>
			<stop  offset="1" style="stop-color:#440085"/>
		</radialGradient>
		<path fill="url(#SVGID_3_)" d="M381.922,733.449c0-101.779-82.511-184.288-184.287-184.288
			c-101.781,0-184.289,82.509-184.289,184.288s82.508,184.288,184.289,184.288C299.411,917.737,381.922,835.229,381.922,733.449z"/>
		<linearGradient id="SVGID_4_" gradientUnits="userSpaceOnUse" x1="384.4814" y1="733.4297" x2="616.6246" y2="732.8253">
			<stop  offset="0" style="stop-color:#440086"/>
			<stop  offset="0.2539" style="stop-color:#5C0775"/>
			<stop  offset="0.4907" style="stop-color:#8C1453"/>
			<stop  offset="0.8592" style="stop-color:#F43508"/>
			<stop  offset="0.9368" style="stop-color:#FF4201"/>
		</linearGradient>
		<path fill="url(#SVGID_4_)" d="M632.826,805.159c0,0-11.041-57.597-132.827-57.597c-121.784,0-132.825,57.597-132.825,57.597
			s9.117-33.126,9.117-72.029s-9.117-72.029-9.117-72.029s11.041,57.596,132.825,57.596c121.786,0,132.827-57.596,132.827-57.596
			s-8.867,26.978-8.867,72.346S632.826,805.159,632.826,805.159z"/>
		
			<linearGradient id="SVGID_5_" gradientUnits="userSpaceOnUse" x1="-1171.1079" y1="3418.4668" x2="-927.5401" y2="3417.8328" gradientTransform="matrix(0.5 0.866 0.866 -0.5 -1784.1138 3089.6411)">
			<stop  offset="0.0408" style="stop-color:#01BFE2"/>
			<stop  offset="0.1157" style="stop-color:#0AB9E0"/>
			<stop  offset="0.2315" style="stop-color:#26A5D9"/>
			<stop  offset="0.4811" style="stop-color:#865FBF"/>
			<stop  offset="0.8513" style="stop-color:#FD4205"/>
			<stop  offset="1" style="stop-color:#FF4102"/>
		</linearGradient>
		<path fill="url(#SVGID_5_)" d="M779.92,550.492c0,0-55.402,19.236-116.295-86.232s-16.531-143.828-16.531-143.828
			s-24.131,24.459-57.822,43.91c-33.689,19.451-66.938,28.119-66.938,28.119s55.4-19.236,116.293,86.232
			c60.893,105.468,16.533,143.828,16.533,143.828s18.93-21.168,58.221-43.852C752.67,555.985,779.92,550.492,779.92,550.492z"/>
		
			<linearGradient id="SVGID_6_" gradientUnits="userSpaceOnUse" x1="2511.8477" y1="942.6719" x2="2756.9399" y2="942.0338" gradientTransform="matrix(0.5 -0.866 0.866 0.5 -1784.1138 2281.1318)">
			<stop  offset="0" style="stop-color:#440088"/>
			<stop  offset="0.0316" style="stop-color:#440088"/>
			<stop  offset="0.2776" style="stop-color:#3E2097"/>
			<stop  offset="0.4749" style="stop-color:#2A4BAB"/>
			<stop  offset="0.742" style="stop-color:#0BA2D4"/>
			<stop  offset="0.8407" style="stop-color:#04B7DE"/>
			<stop  offset="0.9184" style="stop-color:#01BFE2"/>
		</linearGradient>
		<path fill="url(#SVGID_6_)" d="M477.636,392.461c0,0-55.4-19.236-116.294,86.232s-16.531,143.828-16.531,143.828
			s-24.131-24.459-57.823-43.91c-33.688-19.451-66.937-28.119-66.937-28.119s55.4,19.236,116.293-86.232
			c60.893-105.468,16.533-143.828,16.533-143.828s18.93,21.168,58.219,43.852C450.387,386.968,477.636,392.461,477.636,392.461z"/>
	</g>
</g>
<g id="BLUE_SHIT">
</g>
<g id="shit_copy_bluRPLE">
</g>
<g id="Layer_17">
</g>
<g id="Layer_19">
</g>
<g id="Layer_18">
</g>
<g id="Layer_10">
</g>
<g id="Layer_11">
</g>
<g id="Layer_12">
</g>
</svg>
