<svg id="Layer_1" data-name="Layer 1" xmlns="http://www.w3.org/2000/svg" viewBox="0 0 493.79 93.7"><title>mobile_water_diagram_7</title><path d="M233.89,12.56c-11.32.94-19.35,3.28-19.35,6,0,3.56,13.57,6.45,30.3,6.45s30.3-2.89,30.3-6.45c0-2.74-8-5.08-19.35-6" style="fill:none;stroke:#eee;stroke-linecap:round;stroke-linejoin:round;stroke-width:2px"/><path d="M214.54,18.58V86.24c0,3.56,13.57,6.45,30.3,6.45s30.3-2.89,30.3-6.45V18.58" style="fill:none;stroke:#eee;stroke-linecap:round;stroke-linejoin:round;stroke-width:2px"/><path d="M214.54,27.78c0,3.56,13.57,6.45,30.3,6.45s30.3-2.89,30.3-6.45" style="fill:none;stroke:#eee;stroke-linecap:round;stroke-linejoin:round;stroke-width:2px"/><path d="M214.54,76.85c0,3.56,13.57,6.45,30.3,6.45,16.21,0,29.45-2.71,30.26-6.12" style="fill:none;stroke:#eee;stroke-linecap:round;stroke-linejoin:round;stroke-width:2px"/><polyline points="356.93 0 356.93 50.04 280.29 50.06" style="fill:none;stroke:#eee;stroke-linejoin:round;stroke-width:2px"/><path d="M367.9,0V55.54a5.5,5.5,0,0,1-5.5,5.5H280.29" style="fill:none;stroke:#eee;stroke-linejoin:round;stroke-width:2px"/><path d="M239.33,0V11.76a15.27,15.27,0,0,0,11,0V0" style="fill:none;stroke:#eee;stroke-linejoin:round;stroke-width:2px"/><path d="M233.89,12.74v3.93c0,2,4.91,3.7,11,3.7s11-1.66,11-3.7V12.74" style="fill:none;stroke:#eee;stroke-linecap:round;stroke-linejoin:round;stroke-width:2px"/><path d="M250.34,10.26c3.26,0.5,5.46,1.42,5.46,2.48,0,1.58-4.91,2.87-11,2.87s-11-1.28-11-2.87c0-1.06,2.19-2,5.46-2.48" style="fill:none;stroke:#eee;stroke-linecap:round;stroke-linejoin:round;stroke-width:2px"/><polyline points="275.14 63.72 280.29 63.72 280.29 47.38 275.14 47.38" style="fill:none;stroke:#eee;stroke-linecap:round;stroke-linejoin:round;stroke-width:2px"/></svg>