<svg id="Layer_1" data-name="Layer 1" xmlns="http://www.w3.org/2000/svg" viewBox="0 0 493.79 196.02"><title>mobile_water_diagram_1</title><polyline points="76.92 146.88 76.92 184.01 241.47 184 241.47 146.88" style="fill:none;stroke:#eee;stroke-linecap:round;stroke-linejoin:round;stroke-width:2px"/><polyline points="252.47 146.88 252.47 184 416.87 184.01 416.87 146.88" style="fill:none;stroke:#eee;stroke-linecap:round;stroke-linejoin:round;stroke-width:2px"/><path d="M65.92,146.89v42.63a5.5,5.5,0,0,0,5.5,5.5H241.47" style="fill:none;stroke:#eee;stroke-linecap:square;stroke-linejoin:round;stroke-width:2px"/><path d="M427.87,146.89v42.63a5.5,5.5,0,0,1-5.5,5.5H252.47" style="fill:none;stroke:#eee;stroke-linecap:square;stroke-linejoin:round;stroke-width:2px"/><polyline points="236.01 141.05 236.01 146.88 257.93 146.88 257.93 141.03" style="fill:none;stroke:#000;stroke-linecap:round;stroke-linejoin:round;stroke-width:2px"/><path d="M176.63,68.17s7.42,7.29,23.26-1.38c0,0,10.83,17.83,24.83,6.83,0,0,11.17,15.25,26.17-1.89,0,0,11.08,16.15,26.08,4.65,0,0,14.08,7.71,25.25-5.62,0,0,9.3,7,15,4.62" style="fill:none;stroke:#000;stroke-linecap:round;stroke-linejoin:round;stroke-width:2px"/><path d="M189.9,90.35s8.85,5.24,18.24-2c0,0,2.25,8.41,14.72,8.41" style="fill:none;stroke:#000;stroke-linecap:round;stroke-linejoin:round;stroke-width:2px"/><path d="M248,98.29s6.23,0,8.5-5c0,0,3.5,5.18,9.49,3.44" style="fill:none;stroke:#000;stroke-linecap:round;stroke-linejoin:round;stroke-width:2px"/><path d="M219.88,114.29s11.25,0.52,13.67-4.83a10.06,10.06,0,0,0,11.83,6.17" style="fill:none;stroke:#000;stroke-linecap:round;stroke-linejoin:round;stroke-width:2px"/><path d="M272.94,114.74s9.75,1.13,14-6.12c0,0,3.92,6.18,12,3.09" style="fill:none;stroke:#000;stroke-linecap:round;stroke-linejoin:round;stroke-width:2px"/><path d="M298.9,93.87a8,8,0,0,0,7.23-4.37s3.66,5.5,8.21,2.19" style="fill:none;stroke:#000;stroke-linecap:round;stroke-linejoin:round;stroke-width:2px"/><path d="M194.88,112.74s-6-.6-8.35-5" style="fill:none;stroke:#000;stroke-linecap:round;stroke-linejoin:round;stroke-width:2px"/><path d="M207.09,129.37s4-.08,6-2.58a7.84,7.84,0,0,0,6.83,4" style="fill:none;stroke:#000;stroke-linecap:round;stroke-linejoin:round;stroke-width:2px"/><path d="M252.38,130.79s7.63,0.07,8.83-4c0,0,3.17,4.67,8,4" style="fill:none;stroke:#000;stroke-linecap:round;stroke-linejoin:round;stroke-width:2px"/><path d="M295.43,20.83c-8.8-.62-11.27,7.66-11.27,12.24a11.55,11.55,0,0,0,.11,1.49,11.55,11.55,0,0,0-1.87,2.06,7,7,0,0,0-9,8h-0.13a5.09,5.09,0,1,0,3.17,9,7,7,0,0,0,8.75-.92,11.47,11.47,0,0,0,14.88-1.52,11.48,11.48,0,0,0,14.23,2" style="fill:none;stroke:#000;stroke-linecap:round;stroke-linejoin:round;stroke-width:2px"/><path d="M240,11.88a10,10,0,0,0-19.65,0h-0.18a5.92,5.92,0,0,0-5.71,4.35,4,4,0,1,0,1.34,5.56,5.91,5.91,0,0,0,8.63.11,10,10,0,0,0,11,.29A5.92,5.92,0,1,0,240,11.88Z" style="fill:none;stroke:#000;stroke-linecap:round;stroke-linejoin:round;stroke-width:2px"/><path d="M178.67,54.75a5.56,5.56,0,0,0,4.65-2.51,5.56,5.56,0,1,0,8.92-6.61A5.56,5.56,0,0,0,188,36.5a5.33,5.33,0,0,0-2.4.54" style="fill:none;stroke:#000;stroke-linecap:round;stroke-linejoin:round;stroke-width:2px"/><path d="M288.58,22.73a16.06,16.06,0,1,0-19.31,23.84" style="fill:none;stroke:#000;stroke-linecap:round;stroke-linejoin:round;stroke-width:2px"/><line x1="275.22" y1="13.04" x2="275.22" y2="7.3" style="fill:none;stroke:#000;stroke-linecap:round;stroke-linejoin:round;stroke-width:2px"/><line x1="262.07" y1="44.78" x2="258.01" y2="48.84" style="fill:none;stroke:#000;stroke-linecap:round;stroke-linejoin:round;stroke-width:2px"/><line x1="256.62" y1="31.64" x2="250.88" y2="31.64" style="fill:none;stroke:#000;stroke-linecap:round;stroke-linejoin:round;stroke-width:2px"/><line x1="262.07" y1="18.49" x2="258.01" y2="14.43" style="fill:none;stroke:#000;stroke-linecap:round;stroke-linejoin:round;stroke-width:2px"/><line x1="288.36" y1="18.49" x2="290.39" y2="16.46" style="fill:none;stroke:#000;stroke-linecap:round;stroke-linejoin:round;stroke-width:2px"/><path d="M225,56.2A4,4,0,0,0,228,54.8a3.92,3.92,0,0,0,3.17.51,4,4,0,1,0,2.93-4.55,4,4,0,0,0-6.94-1.91A4,4,0,1,0,225,56.2Z" style="fill:none;stroke:#000;stroke-linecap:round;stroke-linejoin:round;stroke-width:2px"/><circle cx="246.89" cy="71.46" r="70.42" style="fill:none;stroke:#000;stroke-linecap:round;stroke-linejoin:round;stroke-width:2px"/><polyline points="60.47 141.04 60.47 146.88 82.38 146.88 82.38 141.04" style="fill:none;stroke:#000;stroke-linecap:round;stroke-linejoin:round;stroke-width:2px"/><circle cx="71.42" cy="71.46" r="70.42" style="fill:none;stroke:#000;stroke-linecap:round;stroke-linejoin:round;stroke-width:2px"/><ellipse cx="85.67" cy="120.27" rx="12.13" ry="5.75" style="fill:none;stroke:#000;stroke-linecap:round;stroke-linejoin:round;stroke-width:2px"/><ellipse cx="32.79" cy="118.52" rx="12.13" ry="5.75" style="fill:none;stroke:#000;stroke-linecap:round;stroke-linejoin:round;stroke-width:2px"/><ellipse cx="77.21" cy="129.63" rx="9.46" ry="4.49" style="fill:none;stroke:#000;stroke-linecap:round;stroke-linejoin:round;stroke-width:2px"/><ellipse cx="52.71" cy="122.88" rx="9.46" ry="4.49" style="fill:none;stroke:#000;stroke-linecap:round;stroke-linejoin:round;stroke-width:2px"/><ellipse cx="115.46" cy="114.38" rx="9.46" ry="4.49" style="fill:none;stroke:#000;stroke-linecap:round;stroke-linejoin:round;stroke-width:2px"/><ellipse cx="99.67" cy="114.4" rx="6.06" ry="2.88" style="fill:none;stroke:#000;stroke-linecap:round;stroke-linejoin:round;stroke-width:2px"/><ellipse cx="78.83" cy="111.56" rx="6.06" ry="2.88" style="fill:none;stroke:#000;stroke-linecap:round;stroke-linejoin:round;stroke-width:2px"/><ellipse cx="104.54" cy="120.15" rx="6.06" ry="2.88" style="fill:none;stroke:#000;stroke-linecap:round;stroke-linejoin:round;stroke-width:2px"/><ellipse cx="91.82" cy="128.78" rx="3.97" ry="1.88" style="fill:none;stroke:#000;stroke-linecap:round;stroke-linejoin:round;stroke-width:2px"/><ellipse cx="85.44" cy="135.65" rx="3.97" ry="1.88" style="fill:none;stroke:#000;stroke-linecap:round;stroke-linejoin:round;stroke-width:2px"/><ellipse cx="49.69" cy="129.78" rx="3.97" ry="1.88" style="fill:none;stroke:#000;stroke-linecap:round;stroke-linejoin:round;stroke-width:2px"/><path d="M42.13,135.27h0.44c2.19,0,4-.84,4-1.88s-1.78-1.88-4-1.88-4,.84-4,1.88" style="fill:none;stroke:#000;stroke-linecap:round;stroke-linejoin:round;stroke-width:2px"/><ellipse cx="19.24" cy="113.57" rx="3.97" ry="1.88" style="fill:none;stroke:#000;stroke-linecap:round;stroke-linejoin:round;stroke-width:2px"/><ellipse cx="41.24" cy="111.07" rx="3.97" ry="1.88" style="fill:none;stroke:#000;stroke-linecap:round;stroke-linejoin:round;stroke-width:2px"/><ellipse cx="61.07" cy="116.74" rx="3.97" ry="1.88" style="fill:none;stroke:#000;stroke-linecap:round;stroke-linejoin:round;stroke-width:2px"/><ellipse cx="69.9" cy="117.4" rx="3.97" ry="1.88" style="fill:none;stroke:#000;stroke-linecap:round;stroke-linejoin:round;stroke-width:2px"/><ellipse cx="68.57" cy="113.07" rx="3.97" ry="1.88" style="fill:none;stroke:#000;stroke-linecap:round;stroke-linejoin:round;stroke-width:2px"/><ellipse cx="16.38" cy="109.02" rx="3.97" ry="1.88" style="fill:none;stroke:#000;stroke-linecap:round;stroke-linejoin:round;stroke-width:2px"/><ellipse cx="25.45" cy="110.15" rx="3.97" ry="1.88" style="fill:none;stroke:#000;stroke-linecap:round;stroke-linejoin:round;stroke-width:2px"/><ellipse cx="89.4" cy="111.74" rx="3.97" ry="1.88" style="fill:none;stroke:#000;stroke-linecap:round;stroke-linejoin:round;stroke-width:2px"/><ellipse cx="104.4" cy="109.4" rx="3.97" ry="1.88" style="fill:none;stroke:#000;stroke-linecap:round;stroke-linejoin:round;stroke-width:2px"/><ellipse cx="125.57" cy="109.57" rx="3.97" ry="1.88" style="fill:none;stroke:#000;stroke-linecap:round;stroke-linejoin:round;stroke-width:2px"/><path d="M121,121.49a8.64,8.64,0,0,0-5.29-1.47c-3.35,0-6.06,1.29-6.06,2.88s2.71,2.88,6.06,2.88" style="fill:none;stroke:#000;stroke-linecap:round;stroke-linejoin:round;stroke-width:2px"/><ellipse cx="104.1" cy="127" rx="7.87" ry="3.73" style="fill:none;stroke:#000;stroke-linecap:round;stroke-linejoin:round;stroke-width:2px"/><ellipse cx="68.29" cy="123.02" rx="6.06" ry="2.88" style="fill:none;stroke:#000;stroke-linecap:round;stroke-linejoin:round;stroke-width:2px"/><ellipse cx="50.29" cy="114.48" rx="6.06" ry="2.88" style="fill:none;stroke:#000;stroke-linecap:round;stroke-linejoin:round;stroke-width:2px"/><ellipse cx="61.04" cy="129.4" rx="6.06" ry="2.88" style="fill:none;stroke:#000;stroke-linecap:round;stroke-linejoin:round;stroke-width:2px"/><ellipse cx="53.67" cy="134.9" rx="6.06" ry="2.88" style="fill:none;stroke:#000;stroke-linecap:round;stroke-linejoin:round;stroke-width:2px"/><ellipse cx="39.17" cy="127.65" rx="6.06" ry="2.88" style="fill:none;stroke:#000;stroke-linecap:round;stroke-linejoin:round;stroke-width:2px"/><ellipse cx="66.29" cy="135.27" rx="6.06" ry="2.88" style="fill:none;stroke:#000;stroke-linecap:round;stroke-linejoin:round;stroke-width:2px"/><ellipse cx="76.92" cy="138.65" rx="6.06" ry="2.88" style="fill:none;stroke:#000;stroke-linecap:round;stroke-linejoin:round;stroke-width:2px"/><path d="M68.6,141.27c0-1.59-2.71-2.87-6.06-2.87-2.62,0-4.86.79-5.7,1.9" style="fill:none;stroke:#000;stroke-linecap:round;stroke-linejoin:round;stroke-width:2px"/><ellipse cx="95.29" cy="133.52" rx="6.06" ry="2.88" style="fill:none;stroke:#000;stroke-linecap:round;stroke-linejoin:round;stroke-width:2px"/><line x1="16.59" y1="51.42" x2="34.31" y2="51.42" style="fill:none;stroke:#000;stroke-linecap:round;stroke-linejoin:round;stroke-width:2px"/><line x1="88.93" y1="75.6" x2="106.65" y2="75.6" style="fill:none;stroke:#000;stroke-linecap:round;stroke-linejoin:round;stroke-width:2px"/><line x1="129.54" y1="68.6" x2="135.54" y2="68.6" style="fill:none;stroke:#000;stroke-linecap:round;stroke-linejoin:round;stroke-width:2px"/><line x1="55.8" y1="57.61" x2="64.66" y2="57.61" style="fill:none;stroke:#000;stroke-linecap:round;stroke-linejoin:round;stroke-width:2px"/><line x1="101.57" y1="35.6" x2="117.29" y2="35.6" style="fill:none;stroke:#000;stroke-linecap:round;stroke-linejoin:round;stroke-width:2px"/><line x1="38.14" y1="11.61" x2="47" y2="11.61" style="fill:none;stroke:#000;stroke-linecap:round;stroke-linejoin:round;stroke-width:2px"/><line x1="61.86" y1="86.61" x2="70.72" y2="86.61" style="fill:none;stroke:#000;stroke-linecap:round;stroke-linejoin:round;stroke-width:2px"/><line x1="3.56" y1="87.55" x2="12.42" y2="87.55" style="fill:none;stroke:#000;stroke-linecap:round;stroke-linejoin:round;stroke-width:2px"/><line x1="10.84" y1="36.44" x2="19.7" y2="36.44" style="fill:none;stroke:#000;stroke-linecap:round;stroke-linejoin:round;stroke-width:2px"/><line x1="28.41" y1="98.57" x2="46.13" y2="98.57" style="fill:none;stroke:#000;stroke-linecap:round;stroke-linejoin:round;stroke-width:2px"/><path d="M43.63,30.73c0,13.54,5.79,2.7,5.79,2.7,1.69-.68,3.71,1.07,3.71,1.07a2.81,2.81,0,0,0,.74,3.6c2.5,2.17,5.68-.56,5.68-0.56l2,0.84s-1.1,3.62,1.7,3.86C68.66,42.71,70,38.85,70,38.85c8.83-1.75,10-8.12,10-8.12s0.51-3.63-8.21-7.26A7.79,7.79,0,0,0,65,18c-4.65-.47-3.43,5-3.43,5l-2,.84s-6-2.87-7.1-.93a3.26,3.26,0,0,0,.69,4s-2,1.74-3.71,1.07C49.42,28,43.63,18.77,43.63,30.73Z" style="fill:none;stroke:#000;stroke-linecap:round;stroke-linejoin:round;stroke-width:2px"/><path d="M62.79,30.15c-1.13,0-3.44.91-3.44,2s2.32,2,3.44,2" style="fill:none;stroke:#000;stroke-linecap:round;stroke-linejoin:round;stroke-width:2px"/><line x1="74.73" y1="28.15" x2="72.48" y2="28.15" style="fill:none;stroke:#000;stroke-linecap:round;stroke-linejoin:round;stroke-width:2px"/><circle cx="83.92" cy="23.9" r="1.52" style="fill:none;stroke:#000;stroke-linecap:round;stroke-linejoin:round;stroke-width:2px"/><circle cx="97.79" cy="8.49" r="1.52" style="fill:none;stroke:#000;stroke-linecap:round;stroke-linejoin:round;stroke-width:2px"/><circle cx="88.33" cy="13.77" r="2.89" style="fill:none;stroke:#000;stroke-linecap:round;stroke-linejoin:round;stroke-width:2px"/><path d="M89.4,109.85s4.32-8.21,2.42-14.21,0.48-9.5.48-9.5,1,7.25,3,10.5,2,11.08.94,15.38" style="fill:none;stroke:#000;stroke-linecap:round;stroke-linejoin:round;stroke-width:2px"/><path d="M96.7,101.52s3.88-5.12,3.74-10.87a17.22,17.22,0,0,1,.92,12.37c-2.06,7-.92,6.38-0.92,6.38" style="fill:none;stroke:#000;stroke-linecap:round;stroke-linejoin:round;stroke-width:2px"/><path d="M91.22,105.32s-2.73-5.05-2.89-13.43c0,0-3.67,5.88-1,18.25" style="fill:none;stroke:#000;stroke-linecap:round;stroke-linejoin:round;stroke-width:2px"/><path d="M82.39,109.24s-0.23-7.49.58-10.67a13,13,0,0,0-4.15,10.12" style="fill:none;stroke:#000;stroke-linecap:round;stroke-linejoin:round;stroke-width:2px"/><path d="M115.46,109.9s1.83-7.37,1.21-12c0,0,3.64,2.37,2.53,12.36" style="fill:none;stroke:#000;stroke-linecap:round;stroke-linejoin:round;stroke-width:2px"/><path d="M119.2,103.56s1.09-5.54,2.4-10.29a33.18,33.18,0,0,1,2.69-7.12s-1.75,10.21-1.25,14.92a32.22,32.22,0,0,1,.18,7" style="fill:none;stroke:#000;stroke-linecap:round;stroke-linejoin:round;stroke-width:2px"/><path d="M127.92,108.05s3.87-6.28,4-11.78c0,0,1,1.76,1.26,8.37" style="fill:none;stroke:#000;stroke-linecap:round;stroke-linejoin:round;stroke-width:2px"/><path d="M64,115.45a36.47,36.47,0,0,1,.7-14.43s-3.56,4.67-3.59,13.83" style="fill:none;stroke:#000;stroke-linecap:round;stroke-linejoin:round;stroke-width:2px"/><path d="M59.35,115.45s-1.43-7.3.88-12.68a13.76,13.76,0,0,0,0-10.37s-2.67,10.37-4.43,12.5S53.44,112,53.44,112" style="fill:none;stroke:#000;stroke-linecap:round;stroke-linejoin:round;stroke-width:2px"/><path d="M48.48,111.74S47.67,104,51.54,100c0,0-1.12,7.67.56,11.7" style="fill:none;stroke:#000;stroke-linecap:round;stroke-linejoin:round;stroke-width:2px"/><path d="M30.29,112.89s4.13-4.75,2.81-10a14.79,14.79,0,0,1,2.66,10.05" style="fill:none;stroke:#000;stroke-linecap:round;stroke-linejoin:round;stroke-width:2px"/><path d="M23.2,108.6a28.89,28.89,0,0,1,0-12.32A132.19,132.19,0,0,0,25.45,82.9s-8.13,11.78-7.59,24.38" style="fill:none;stroke:#000;stroke-linecap:round;stroke-linejoin:round;stroke-width:2px"/><path d="M15.88,107.16a38.26,38.26,0,0,1,1-13.85s-5.94,6.84-3.75,14.62" style="fill:none;stroke:#000;stroke-linecap:round;stroke-linejoin:round;stroke-width:2px"/><circle cx="109.6" cy="64.51" r="2.37" style="fill:none;stroke:#000;stroke-linecap:round;stroke-linejoin:round;stroke-width:2px"/><circle cx="42.57" cy="84.11" r="2.66" style="fill:none;stroke:#000;stroke-linecap:round;stroke-linejoin:round;stroke-width:2px"/><polyline points="411.41 141 411.41 146.88 433.33 146.88 433.33 141" style="fill:none;stroke:#000;stroke-linecap:round;stroke-linejoin:round;stroke-width:2px"/><path d="M458.43,48.53a8.12,8.12,0,1,0-13.18,3.23,2.49,2.49,0,0,0-.82,2.27c0.3,1.23,1.88,2,3.84,1.92a5.6,5.6,0,0,0,9.42-2.31c1.76-.87,2.82-2.24,2.52-3.48A2.49,2.49,0,0,0,458.43,48.53Z" style="fill:none;stroke:#000;stroke-linecap:round;stroke-linejoin:round;stroke-width:2px"/><circle cx="447.97" cy="50.06" r="1.92" transform="translate(0.94 107.94) rotate(-13.75)" style="fill:none;stroke:#000;stroke-linecap:round;stroke-linejoin:round;stroke-width:2px"/><circle cx="455.23" cy="48.28" r="1.92" transform="translate(1.57 109.61) rotate(-13.75)" style="fill:none;stroke:#000;stroke-linecap:round;stroke-linejoin:round;stroke-width:2px"/><path d="M441.67,54.16a3.21,3.21,0,0,1,.44-2.46c-0.19-.22-0.37-0.46-0.54-0.7l-1.64-.33A2.37,2.37,0,1,0,437.29,52a2.37,2.37,0,1,0,1.9,2.28L442,54.89A2.92,2.92,0,0,1,441.67,54.16Z" style="fill:none;stroke:#000;stroke-linecap:round;stroke-linejoin:round;stroke-width:2px"/><path d="M469.41,54a2.36,2.36,0,0,0-2.83,2.36l-6.49-1.32-0.13.08a5.71,5.71,0,0,1-2.43,3.2L465.85,60a2.37,2.37,0,1,0,2.63-1.37A2.37,2.37,0,1,0,469.41,54Z" style="fill:none;stroke:#000;stroke-linecap:round;stroke-linejoin:round;stroke-width:2px"/><path d="M458.43,48.53a8.12,8.12,0,1,0-13.18,3.23,2.49,2.49,0,0,0-.82,2.27c0.3,1.23,1.88,2,3.84,1.92a5.6,5.6,0,0,0,9.42-2.31c1.76-.87,2.82-2.24,2.52-3.48A2.49,2.49,0,0,0,458.43,48.53Z" style="fill:none;stroke:#000;stroke-linecap:round;stroke-linejoin:round;stroke-width:2px"/><path d="M444,65.3l6.6-5.23A5.71,5.71,0,0,1,447,58.34h-0.18l-5.11,4.05a2.37,2.37,0,1,0-.65,2.9A2.37,2.37,0,1,0,444,65.3Z" style="fill:none;stroke:#000;stroke-linecap:round;stroke-linejoin:round;stroke-width:2px"/><path d="M469.1,45.57a2.37,2.37,0,0,0-3.33-.38,2.37,2.37,0,1,0-3,0l-1.49,1.18c0,0.23-.08.45-0.13,0.68a3.21,3.21,0,0,1,1.52,2,2.93,2.93,0,0,1,.07.94l2.35-1.86A2.37,2.37,0,1,0,469.1,45.57Z" style="fill:none;stroke:#000;stroke-linecap:round;stroke-linejoin:round;stroke-width:2px"/><path d="M456.24,9.81c-4,.56-8.65,1.46-13.56,2.66C428.42,16,417.32,20.71,417.9,23.07s12.61,1.44,26.87-2.05a115,115,0,0,0,19.15-6.25" style="fill:none;stroke:#000;stroke-linecap:round;stroke-linejoin:round;stroke-width:2px"/><path d="M431.69,79.42c0.58,2.36,12.61,1.44,26.87-2.05s25.36-8.23,24.78-10.59" style="fill:none;stroke:#000;stroke-linecap:round;stroke-linejoin:round;stroke-width:2px"/><path d="M419.5,29.6c0.58,2.36,12.61,1.44,26.87-2.05,10.54-2.58,19.34-5.84,23-8.32" style="fill:none;stroke:#000;stroke-linecap:round;stroke-linejoin:round;stroke-width:2px"/><path d="M417.9,23.07l15.36,62.76c0.58,2.36,12.61,1.44,26.87-2.05s25.36-8.23,24.78-10.59l-12.48-51" style="fill:none;stroke:#000;stroke-linecap:round;stroke-linejoin:round;stroke-width:2px"/><circle cx="452.9" cy="121.94" r="2.33" style="fill:none;stroke:#000;stroke-linecap:round;stroke-linejoin:round;stroke-width:2px"/><circle cx="456.23" cy="111.97" r="4.03" style="fill:none;stroke:#000;stroke-linecap:round;stroke-linejoin:round;stroke-width:2px"/><circle cx="383.79" cy="99.7" r="1.89" style="fill:none;stroke:#000;stroke-linecap:round;stroke-linejoin:round;stroke-width:2px"/><circle cx="389.52" cy="89.68" r="1.96" style="fill:none;stroke:#000;stroke-linecap:round;stroke-linejoin:round;stroke-width:2px"/><circle cx="383.73" cy="65.66" r="3.83" style="fill:none;stroke:#000;stroke-linecap:round;stroke-linejoin:round;stroke-width:2px"/><circle cx="390.75" cy="55.85" r="1.86" style="fill:none;stroke:#000;stroke-linecap:round;stroke-linejoin:round;stroke-width:2px"/><circle cx="411.03" cy="18.24" r="2.24" style="fill:none;stroke:#000;stroke-linecap:round;stroke-linejoin:round;stroke-width:2px"/><circle cx="414.97" cy="6.48" r="3.94" style="fill:none;stroke:#000;stroke-linecap:round;stroke-linejoin:round;stroke-width:2px"/><circle cx="364.79" cy="41.37" r="2.23" style="fill:none;stroke:#000;stroke-linecap:round;stroke-linejoin:round;stroke-width:2px"/><circle cx="426.24" cy="82.97" r="2.25" style="fill:none;stroke:#000;stroke-linecap:round;stroke-linejoin:round;stroke-width:2px"/><circle cx="358.4" cy="88.64" r="3" style="fill:none;stroke:#000;stroke-linecap:round;stroke-linejoin:round;stroke-width:2px"/><circle cx="485.8" cy="83.81" r="2.43" style="fill:none;stroke:#000;stroke-linecap:round;stroke-linejoin:round;stroke-width:2px"/><circle cx="482.92" cy="93.65" r="2.02" style="fill:none;stroke:#000;stroke-linecap:round;stroke-linejoin:round;stroke-width:2px"/><path d="M414.37,112s-4.08-4.52-12.05-1.69a16.72,16.72,0,0,1,6.1,4.08" style="fill:none;stroke:#000;stroke-linecap:round;stroke-linejoin:round;stroke-width:2px"/><path d="M385,131.18a12.43,12.43,0,0,1,3.28-2.5c3.69-2,8.12-1.34,11.29-.38a28.26,28.26,0,0,0,18-1.3c14.71-5.91,16-16.48,16-16.48s-7-6.73-22.47-.52" style="fill:none;stroke:#000;stroke-linecap:round;stroke-linejoin:round;stroke-width:2px"/><path d="M406.09,112.32a40,40,0,0,0-8.73,6c-2.72,2.56-5.52,5.21-10.32,5.16-5,0-9-9.17-9-9.17s-3.7,1.5-3.86,6.93c0,0,3,4.87,7.17,4.78a10.51,10.51,0,0,0-1.17,1.71" style="fill:none;stroke:#000;stroke-linecap:round;stroke-linejoin:round;stroke-width:2px"/><line x1="424.59" y1="116.82" x2="427.35" y2="115.04" style="fill:none;stroke:#000;stroke-linecap:round;stroke-linejoin:round;stroke-width:2px"/><line x1="424.93" y1="114.66" x2="427.01" y2="117.2" style="fill:none;stroke:#000;stroke-linecap:round;stroke-linejoin:round;stroke-width:2px"/><path d="M422,124.88s-1.31,4.09-3.16,5.8-8.16,2-10.86,3.81c0,0,5.07-3.88,3.87-5.79" style="fill:none;stroke:#000;stroke-linecap:round;stroke-linejoin:round;stroke-width:2px"/><circle cx="422.36" cy="71.42" r="70.42" style="fill:none;stroke:#000;stroke-linecap:round;stroke-linejoin:round;stroke-width:2px"/></svg>