<svg id="Layer_1" data-name="Layer 1" xmlns="http://www.w3.org/2000/svg" viewBox="0 0 493.79 124.11"><title>mobile_water_diagram_3_artboard_test</title><rect x="190.64" y="12.62" width="112.5" height="105" style="fill:none;stroke:#000;stroke-linecap:round;stroke-linejoin:round;stroke-width:2px"/><path d="M242.07,77.51l-8.35-16.45V84.27c0,2.34-.07,3.17-0.68,4.39a5.18,5.18,0,0,1-8.71,0c-0.61-1.22-.68-2.05-0.68-4.39V45.43c0-2.2.29-3.64,1.51-4.86a4.59,4.59,0,0,1,3.38-1.37,4.93,4.93,0,0,1,3,.83,8.45,8.45,0,0,1,2.56,3.1l12.81,24.41,12.81-24.41a8.45,8.45,0,0,1,2.56-3.1,4.93,4.93,0,0,1,3-.83,4.59,4.59,0,0,1,3.38,1.37c1.22,1.22,1.51,2.66,1.51,4.86V84.27c0,2.34-.07,3.17-0.68,4.39a5.18,5.18,0,0,1-8.71,0c-0.61-1.22-.68-2.05-0.68-4.39V61.05l-8.35,16.45C250.46,80,249.27,81,246.89,81S243.33,80,242.07,77.51Z" style="fill:none;stroke:#000;stroke-linecap:round;stroke-linejoin:round;stroke-width:2px"/><polyline points="257.93 4.84 293.13 4.84 303.14 12.62" style="fill:none;stroke:#000;stroke-linecap:round;stroke-linejoin:round;stroke-width:2px"/><polyline points="190.64 12.62 200.65 4.84 236.01 4.84" style="fill:none;stroke:#000;stroke-linecap:round;stroke-linejoin:round;stroke-width:2px"/><rect x="236.01" y="1.01" width="21.91" height="7.72" style="fill:none;stroke:#000;stroke-linecap:round;stroke-linejoin:round;stroke-width:2px"/><polyline points="255.88 117.62 255.88 123.1 233.96 123.1 233.96 117.62" style="fill:none;stroke:#000;stroke-linecap:round;stroke-linejoin:round;stroke-width:2px"/><polyline points="225.02 117.62 225.02 123.1 203.11 123.1 203.11 117.62" style="fill:none;stroke:#000;stroke-linecap:round;stroke-linejoin:round;stroke-width:2px"/></svg>