<svg id="Layer_1" data-name="Layer 1" xmlns="http://www.w3.org/2000/svg" viewBox="0 0 493.79 157.77"><title>mobile_water_diagram_5</title><line x1="239.33" x2="239.33" y2="28.61" style="fill:none;stroke:#eee;stroke-linejoin:round;stroke-width:2px"/><line x1="250.31" x2="250.31" y2="28.61" style="fill:none;stroke:#eee;stroke-linejoin:round;stroke-width:2px"/><path d="M219.55,0V6.5a5.5,5.5,0,0,1-5.5,5.5l-73.57,0V28.61" style="fill:none;stroke:#eee;stroke-linejoin:round;stroke-width:2px"/><path d="M129.5,28.61V6.52A5.5,5.5,0,0,1,135,1l73.57,0" style="fill:none;stroke:#eee;stroke-linecap:square;stroke-linejoin:round;stroke-width:2px"/><line x1="356.93" y1="152.21" x2="356.93" y2="157.77" style="fill:none;stroke:#eee;stroke-linejoin:round;stroke-width:2px"/><line x1="367.9" y1="152.21" x2="367.9" y2="157.77" style="fill:none;stroke:#eee;stroke-linejoin:round;stroke-width:2px"/><line x1="250.31" y1="156.71" x2="250.31" y2="152.21" style="fill:none;stroke:#eee;stroke-linejoin:round;stroke-width:2px"/><line x1="239.33" y1="152.21" x2="239.33" y2="156.71" style="fill:none;stroke:#eee;stroke-linejoin:round;stroke-width:2px"/><polygon points="451.51 141.21 38.17 141.21 98.22 28.61 391.46 28.61 451.51 141.21" style="fill:none;stroke:#000;stroke-linecap:round;stroke-linejoin:round;stroke-width:2px"/><line x1="427.76" y1="96.67" x2="61.93" y2="96.67" style="fill:none;stroke:#000;stroke-linecap:round;stroke-linejoin:round;stroke-width:2px"/><line x1="407.21" y1="58.14" x2="82.48" y2="58.14" style="fill:none;stroke:#000;stroke-linecap:round;stroke-linejoin:round;stroke-width:2px"/><polyline points="195.97 28.61 175.95 141.21 175.95 152.21" style="fill:none;stroke:#000;stroke-linecap:round;stroke-linejoin:round;stroke-width:2px"/><polyline points="293.71 28.61 313.73 141.21 313.73 152.21" style="fill:none;stroke:#000;stroke-linecap:round;stroke-linejoin:round;stroke-width:2px"/><polyline points="38.17 141.21 38.17 152.21 451.51 152.21 451.51 141.21" style="fill:none;stroke:#000;stroke-linecap:round;stroke-linejoin:round;stroke-width:2px"/><path d="M432.31,105.2V90a5.5,5.5,0,0,0-5.5-5.5h-5.48" style="fill:none;stroke:#000;stroke-linecap:round;stroke-linejoin:round;stroke-width:2px"/><path d="M412.59,68.23V53a5.5,5.5,0,0,0-5.5-5.5h-5.48" style="fill:none;stroke:#000;stroke-linecap:round;stroke-linejoin:round;stroke-width:2px"/><path d="M387.68,152.22a5.5,5.5,0,0,0,5.41,4.49h57a5.5,5.5,0,0,0,5.5-5.5V133.79a5.5,5.5,0,0,0-5.5-5.5h-5.48" style="fill:none;stroke:#000;stroke-linecap:round;stroke-linejoin:round;stroke-width:2px"/><path d="M69.54,82.39V67.27a5.5,5.5,0,0,1,5.5-5.5h5.48" style="fill:none;stroke:#000;stroke-linecap:round;stroke-linejoin:round;stroke-width:2px"/><path d="M86,51.34V36.15a5.5,5.5,0,0,1,5.5-5.5H97" style="fill:none;stroke:#000;stroke-linecap:round;stroke-linejoin:round;stroke-width:2px"/><path d="M48.9,121.08V105.83a5.5,5.5,0,0,1,5.5-5.5h5.48" style="fill:none;stroke:#000;stroke-linecap:round;stroke-linejoin:round;stroke-width:2px"/></svg>