<svg id="Layer_1" data-name="Layer 1" xmlns="http://www.w3.org/2000/svg" viewBox="0 0 42.99 50">
  <title>osx_icon</title>
  <g>
    <path d="M45,36.13s-4.1-5.21-9.43-5.12c-5.62.1-6.28,2.18-10,2.18-2.92,0-5.84-2.5-9.92-2.18-7.2.57-12.92,7.81-12.06,16.69C4.53,57.43,9.34,65,14,68.24c4.25,3,6.89-1.09,11.68-1.09s5.51,2.18,9.07,2.18S43,63.65,46.5,56a11.19,11.19,0,0,1-7.2-10.56A10.31,10.31,0,0,1,45,36.13Z" transform="translate(-3.5 -19.33)"/>
    <path d="M34.41,19.33c-5.93.4-11,6.42-10.14,12C27.25,31.69,35.08,28.08,34.41,19.33Z" transform="translate(-3.5 -19.33)"/>
  </g>
</svg>
