<svg xmlns="http://www.w3.org/2000/svg" viewBox="0 0 2379.68 1503.5"><defs><style>.cls-1{fill:#fff;}</style></defs><title>Asset 1</title><g id="Layer_2" data-name="Layer 2"><g id="Layer_2-2" data-name="Layer 2"><path class="cls-1" d="M20.48,991.2H12.6V979.54a1.58,1.58,0,0,0-3.15,0V991.2H1.57a1.58,1.58,0,0,0,0,3.15H9.45V1006a1.58,1.58,0,0,0,3.15,0V994.35h7.88a1.58,1.58,0,0,0,0-3.15Z"/><path class="cls-1" d="M191.63,1183.1h-7.87v-11.66a1.57,1.57,0,0,0-3.15,0v11.66h-7.87a1.58,1.58,0,0,0,0,3.15h7.88v11.65a1.57,1.57,0,1,0,3.15,0v-11.65h7.88a1.58,1.58,0,0,0,0-3.15Z"/><path class="cls-1" d="M302.86,1069.61H295V1058a1.57,1.57,0,0,0-3.15,0v11.66H284a1.58,1.58,0,0,0,0,3.15h7.88v11.65a1.57,1.57,0,1,0,3.15,0v-11.65h7.88a1.58,1.58,0,0,0,0-3.15Z"/><path class="cls-1" d="M387.07,1250.79h-7.87v-11.66a1.58,1.58,0,0,0-3.15,0v11.66h-7.87a1.58,1.58,0,0,0,0,3.15H376v11.65a1.58,1.58,0,0,0,3.15,0v-11.65h7.88a1.58,1.58,0,0,0,0-3.15Z"/><path class="cls-1" d="M535.37,1217.67h-7.87V1206a1.57,1.57,0,1,0-3.15,0v11.66h-7.87a1.57,1.57,0,1,0,0,3.15h7.88v11.66a1.57,1.57,0,1,0,3.15,0v-11.66h7.88a1.57,1.57,0,1,0,0-3.15Z"/><path class="cls-1" d="M826.55,1034.08h-7.87v-11.66a1.57,1.57,0,1,0-3.15,0v11.66h-7.87a1.57,1.57,0,1,0,0,3.15h7.88v11.66a1.57,1.57,0,1,0,3.15,0v-11.66h7.88a1.57,1.57,0,1,0,0-3.15Z"/><path class="cls-1" d="M935.68,1355.23h-7.87v-11.66a1.57,1.57,0,1,0-3.15,0v11.66h-7.87a1.57,1.57,0,1,0,0,3.15h7.88V1370a1.57,1.57,0,1,0,3.15,0v-11.66h7.88a1.57,1.57,0,1,0,0-3.15Z"/><path class="cls-1" d="M1245.63,1116.83h-7.87v-11.66a1.58,1.58,0,0,0-3.15,0v11.66h-7.87a1.58,1.58,0,0,0,0,3.15h7.88v11.65a1.58,1.58,0,0,0,3.15,0V1120h7.88a1.58,1.58,0,0,0,0-3.15Z"/><path class="cls-1" d="M1453.9,1101H1446v-11.66a1.58,1.58,0,1,0-3.15,0V1101H1435a1.57,1.57,0,0,0,0,3.15h7.88v11.66a1.58,1.58,0,0,0,3.15,0v-11.66h7.88a1.57,1.57,0,1,0,0-3.15Z"/><path class="cls-1" d="M1776.09,1151.77h-7.87v-11.66a1.57,1.57,0,0,0-3.15,0v11.66h-7.87a1.58,1.58,0,0,0,0,3.15h7.88v11.65a1.57,1.57,0,1,0,3.15,0v-11.65h7.88a1.58,1.58,0,0,0,0-3.15Z"/><path class="cls-1" d="M2033.75,1099.52h-7.87v-11.66a1.57,1.57,0,0,0-3.15,0v11.66h-7.87a1.58,1.58,0,1,0,0,3.15h7.88v11.65a1.57,1.57,0,1,0,3.15,0v-11.65h7.88a1.58,1.58,0,0,0,0-3.15Z"/><path class="cls-1" d="M1786.43,857h-7.87V845.38a1.58,1.58,0,0,0-3.15,0V857h-7.87a1.58,1.58,0,0,0,0,3.15h7.88v11.65a1.58,1.58,0,0,0,3.15,0V860.18h7.88a1.58,1.58,0,0,0,0-3.15Z"/><path class="cls-1" d="M1473.1,751.42h-7.87V739.76a1.58,1.58,0,0,0-3.15,0v11.66h-7.87a1.57,1.57,0,1,0,0,3.15h7.88v11.66a1.58,1.58,0,0,0,3.15,0V754.57h7.88a1.57,1.57,0,1,0,0-3.15Z"/><path class="cls-1" d="M1341.69,1000.3h-7.87V988.65a1.58,1.58,0,0,0-3.15,0v11.66h-7.87a1.57,1.57,0,1,0,0,3.15h7.88v11.66a1.58,1.58,0,0,0,3.15,0v-11.66h7.88a1.57,1.57,0,0,0,0-3.15Z"/><path class="cls-1" d="M1195.17,960.53h-7.87V948.88a1.58,1.58,0,0,0-3.15,0v11.66h-7.87a1.58,1.58,0,0,0,0,3.15h7.88v11.65a1.58,1.58,0,0,0,3.15,0V963.68h7.88a1.58,1.58,0,0,0,0-3.15Z"/><path class="cls-1" d="M1081.12,730.9h-7.87V719.24a1.57,1.57,0,1,0-3.15,0V730.9h-7.87a1.57,1.57,0,1,0,0,3.15h7.88V745.7a1.57,1.57,0,1,0,3.15,0V734h7.88a1.57,1.57,0,1,0,0-3.15Z"/><path class="cls-1" d="M799.85,848.15H792V836.49a1.58,1.58,0,0,0-3.15,0v11.66H781a1.57,1.57,0,1,0,0,3.15h7.88V863a1.58,1.58,0,1,0,3.15,0V851.3h7.88a1.57,1.57,0,1,0,0-3.15Z"/><path class="cls-1" d="M683.86,667.48H676V655.83a1.57,1.57,0,1,0-3.15,0v11.65H665a1.57,1.57,0,0,0,0,3.15h7.88v11.66a1.57,1.57,0,0,0,3.15,0V670.63h7.88a1.57,1.57,0,1,0,0-3.15Z"/><path class="cls-1" d="M603.31,624h-7.87V612.32a1.57,1.57,0,1,0-3.15,0V624h-7.87a1.57,1.57,0,0,0,0,3.15h7.88v11.66a1.57,1.57,0,0,0,3.15,0V627.13h7.88a1.57,1.57,0,1,0,0-3.15Z"/><path class="cls-1" d="M306.7,639.63h-7.87V628a1.58,1.58,0,0,0-3.15,0v11.66H287.8a1.57,1.57,0,0,0,0,3.15h7.88v11.65a1.58,1.58,0,1,0,3.15,0V642.78h7.88a1.57,1.57,0,0,0,0-3.15Z"/><path class="cls-1" d="M539.61,409.58h-7.87V397.93a1.57,1.57,0,1,0-3.15,0v11.65h-7.87a1.58,1.58,0,1,0,0,3.15h7.88v11.65a1.57,1.57,0,1,0,3.15,0V412.73h7.88a1.58,1.58,0,0,0,0-3.15Z"/><path class="cls-1" d="M732.37,634.44h-7.87V622.78a1.57,1.57,0,1,0-3.15,0v11.65h-7.87a1.57,1.57,0,0,0,0,3.15h7.88v11.66a1.57,1.57,0,0,0,3.15,0V637.59h7.88a1.57,1.57,0,1,0,0-3.15Z"/><path class="cls-1" d="M929.31,503.08h-7.87V491.43a1.57,1.57,0,1,0-3.15,0v11.65h-7.87a1.58,1.58,0,1,0,0,3.15h7.88v11.65a1.57,1.57,0,1,0,3.15,0V506.23h7.88a1.58,1.58,0,0,0,0-3.15Z"/><path class="cls-1" d="M1256.81,545.65h-7.87V534a1.58,1.58,0,0,0-3.15,0v11.66h-7.87a1.57,1.57,0,0,0,0,3.15h7.88v11.65a1.58,1.58,0,1,0,3.15,0V548.8h7.88a1.57,1.57,0,1,0,0-3.15Z"/><path class="cls-1" d="M1493.53,782.33h-7.87V770.67a1.58,1.58,0,0,0-3.15,0v11.66h-7.87a1.57,1.57,0,0,0,0,3.15h7.88v11.66a1.58,1.58,0,0,0,3.15,0V785.48h7.88a1.57,1.57,0,1,0,0-3.15Z"/><path class="cls-1" d="M1663.29,741.36h-7.87V729.7a1.58,1.58,0,0,0-3.15,0v11.66h-7.87a1.58,1.58,0,0,0,0,3.15h7.88v11.65a1.58,1.58,0,0,0,3.15,0V744.51h7.88a1.58,1.58,0,0,0,0-3.15Z"/><path class="cls-1" d="M1885.62,649.82h-7.87V638.17a1.58,1.58,0,0,0-3.15,0v11.66h-7.87a1.57,1.57,0,0,0,0,3.15h7.88v11.65a1.58,1.58,0,1,0,3.15,0V653h7.88a1.57,1.57,0,1,0,0-3.15Z"/><path class="cls-1" d="M2195,563.42h-7.87V551.77a1.58,1.58,0,0,0-3.15,0v11.66h-7.87a1.57,1.57,0,0,0,0,3.15H2184v11.65a1.58,1.58,0,0,0,3.15,0V566.57H2195a1.57,1.57,0,1,0,0-3.15Z"/><path class="cls-1" d="M1911.74,580.55h-7.87V568.89a1.57,1.57,0,1,0-3.15,0v11.65h-7.87a1.57,1.57,0,1,0,0,3.15h7.88v11.66a1.57,1.57,0,1,0,3.15,0V583.7h7.88a1.57,1.57,0,1,0,0-3.15Z"/><path class="cls-1" d="M1755.3,460h-7.87V448.32a1.58,1.58,0,1,0-3.15,0V460h-7.87a1.58,1.58,0,1,0,0,3.15h7.88v11.65a1.58,1.58,0,1,0,3.15,0V463.12h7.88a1.58,1.58,0,0,0,0-3.15Z"/><path class="cls-1" d="M1519.11,530.21h-7.87V518.55a1.58,1.58,0,0,0-3.15,0v11.66h-7.87a1.57,1.57,0,1,0,0,3.15h7.88V545a1.58,1.58,0,0,0,3.15,0V533.36h7.88a1.57,1.57,0,1,0,0-3.15Z"/><path class="cls-1" d="M1191.84,526.46H1184V514.8a1.58,1.58,0,0,0-3.15,0v11.66h-7.87a1.57,1.57,0,1,0,0,3.15h7.87v11.65a1.58,1.58,0,0,0,3.15,0V529.61h7.88a1.57,1.57,0,1,0,0-3.15Z"/><path class="cls-1" d="M965.34,382.71h-7.87V371.05a1.57,1.57,0,1,0-3.15,0v11.65h-7.87a1.58,1.58,0,1,0,0,3.15h7.88v11.65a1.57,1.57,0,1,0,3.15,0V385.86h7.88a1.58,1.58,0,1,0,0-3.15Z"/><path class="cls-1" d="M638,514.27H630.1V502.61a1.57,1.57,0,1,0-3.15,0v11.65h-7.87a1.57,1.57,0,0,0,0,3.15H627v11.66a1.57,1.57,0,0,0,3.15,0V517.42H638a1.57,1.57,0,1,0,0-3.15Z"/><path class="cls-1" d="M489.13,250.37h-7.87V238.72a1.57,1.57,0,1,0-3.15,0v11.65h-7.87a1.57,1.57,0,1,0,0,3.15h7.88v11.66a1.57,1.57,0,0,0,3.15,0V253.52h7.88a1.57,1.57,0,0,0,0-3.15Z"/><path class="cls-1" d="M472.9,256.71H465V245.06a1.57,1.57,0,1,0-3.15,0v11.65H454a1.57,1.57,0,1,0,0,3.15h7.88v11.66a1.57,1.57,0,0,0,3.15,0V259.86h7.88a1.57,1.57,0,0,0,0-3.15Z"/><path class="cls-1" d="M639,217.72h-7.87V206.06a1.57,1.57,0,1,0-3.15,0v11.65H620.1a1.57,1.57,0,1,0,0,3.15H628v11.66a1.57,1.57,0,0,0,3.15,0V220.87H639a1.57,1.57,0,1,0,0-3.15Z"/><path class="cls-1" d="M877.59,174.33h-7.87V162.67a1.57,1.57,0,1,0-3.15,0v11.65h-7.87a1.58,1.58,0,1,0,0,3.15h7.88v11.65a1.57,1.57,0,1,0,3.15,0V177.48h7.88a1.58,1.58,0,0,0,0-3.15Z"/><path class="cls-1" d="M1188.42,394.33h-7.87V382.68a1.57,1.57,0,1,0-3.15,0v11.66h-7.87a1.57,1.57,0,1,0,0,3.15h7.88v11.65a1.57,1.57,0,1,0,3.15,0V397.48h7.88a1.57,1.57,0,1,0,0-3.15Z"/><path class="cls-1" d="M1482.69,545.87h-7.87V534.22a1.57,1.57,0,1,0-3.15,0v11.66h-7.87a1.57,1.57,0,1,0,0,3.15h7.88v11.65a1.57,1.57,0,1,0,3.15,0V549h7.88a1.57,1.57,0,1,0,0-3.15Z"/><path class="cls-1" d="M1811.48,436.87h-7.87V425.22a1.58,1.58,0,0,0-3.15,0v11.66h-7.87a1.57,1.57,0,1,0,0,3.15h7.88v11.65a1.58,1.58,0,0,0,3.15,0V440h7.88a1.57,1.57,0,0,0,0-3.15Z"/><path class="cls-1" d="M2095.25,298.1h-7.87V286.45a1.58,1.58,0,0,0-3.15,0V298.1h-7.87a1.57,1.57,0,1,0,0,3.15h7.88v11.66a1.58,1.58,0,0,0,3.15,0V301.25h7.88a1.57,1.57,0,1,0,0-3.15Z"/><path class="cls-1" d="M1461.66,428.89h-7.87V417.24a1.58,1.58,0,0,0-3.15,0v11.66h-7.87a1.57,1.57,0,0,0,0,3.15h7.88V443.7a1.58,1.58,0,0,0,3.15,0V432h7.88a1.57,1.57,0,1,0,0-3.15Z"/><path class="cls-1" d="M1578.27,261.92h-7.87V250.26a1.58,1.58,0,0,0-3.15,0v11.66h-7.87a1.57,1.57,0,1,0,0,3.15h7.88v11.65a1.58,1.58,0,0,0,3.15,0V265.07h7.88a1.57,1.57,0,1,0,0-3.15Z"/><path class="cls-1" d="M1779.87,423.59H1772V411.94a1.58,1.58,0,1,0-3.15,0v11.65H1761a1.57,1.57,0,1,0,0,3.15h7.88V438.4a1.58,1.58,0,0,0,3.15,0V426.74h7.88a1.57,1.57,0,1,0,0-3.15Z"/><path class="cls-1" d="M1886.74,13.23h-7.87V1.58a1.58,1.58,0,0,0-3.15,0V13.23h-7.87a1.57,1.57,0,1,0,0,3.15h7.88V28a1.58,1.58,0,0,0,3.15,0V16.38h7.88a1.57,1.57,0,1,0,0-3.15Z"/><path class="cls-1" d="M517.45,1033.89h-7.88v-11.66a1.57,1.57,0,0,0-3.15,0v11.66h-7.87a1.58,1.58,0,1,0,0,3.15h7.88v11.65a1.57,1.57,0,1,0,3.15,0V1037h7.88a1.58,1.58,0,1,0,0-3.15Z"/><path class="cls-1" d="M448,788.1h-7.87V776.44a1.57,1.57,0,0,0-3.15,0V788.1h-7.87a1.58,1.58,0,0,0,0,3.15H437v11.66a1.57,1.57,0,0,0,3.15,0V791.25H448a1.58,1.58,0,0,0,0-3.15Z"/><path class="cls-1" d="M200.52,784.69h-7.87V773a1.58,1.58,0,0,0-3.15,0v11.66h-7.87a1.57,1.57,0,1,0,0,3.15h7.88v11.66a1.58,1.58,0,0,0,3.15,0V787.83h7.88a1.57,1.57,0,1,0,0-3.15Z"/><path class="cls-1" d="M1568.65,1292.47h-7.87v-11.66a1.58,1.58,0,0,0-3.15,0v11.66h-7.87a1.58,1.58,0,0,0,0,3.15h7.88v11.65a1.58,1.58,0,0,0,3.15,0v-11.65h7.88a1.58,1.58,0,0,0,0-3.15Z"/><path class="cls-1" d="M1411.26,1130.42h-7.87v-11.66a1.57,1.57,0,1,0-3.15,0v11.66h-7.87a1.57,1.57,0,1,0,0,3.15h7.88v11.66a1.57,1.57,0,1,0,3.15,0v-11.66h7.88a1.57,1.57,0,1,0,0-3.15Z"/><path class="cls-1" d="M1184.37,1454.83h-7.87v-11.66a1.57,1.57,0,1,0-3.15,0v11.66h-7.87a1.58,1.58,0,0,0,0,3.15h7.88v11.65a1.57,1.57,0,1,0,3.15,0V1458h7.87a1.58,1.58,0,1,0,0-3.15Z"/><path class="cls-1" d="M1144.73,1031.18h-7.87v-11.66a1.58,1.58,0,0,0-3.15,0v11.66h-7.87a1.57,1.57,0,1,0,0,3.15h7.88V1046a1.58,1.58,0,0,0,3.15,0v-11.66h7.88a1.57,1.57,0,1,0,0-3.15Z"/><path class="cls-1" d="M954.16,968h-7.87V956.3a1.57,1.57,0,1,0-3.15,0V968h-7.87a1.57,1.57,0,1,0,0,3.15h7.88v11.66a1.57,1.57,0,1,0,3.15,0V971.1h7.88a1.57,1.57,0,1,0,0-3.15Z"/><path class="cls-1" d="M681.68,1183.28h-7.87v-11.66a1.57,1.57,0,1,0-3.15,0v11.66h-7.87a1.57,1.57,0,1,0,0,3.15h7.88v11.66a1.57,1.57,0,1,0,3.15,0v-11.66h7.88a1.57,1.57,0,1,0,0-3.15Z"/><path class="cls-1" d="M754.72,1294.26h-7.87v-11.66a1.57,1.57,0,0,0-3.15,0v11.66h-7.87a1.58,1.58,0,0,0,0,3.15h7.88v11.65a1.57,1.57,0,1,0,3.15,0v-11.65h7.88a1.58,1.58,0,0,0,0-3.15Z"/><path class="cls-1" d="M946.76,1253.32h-7.87v-11.65a1.57,1.57,0,1,0-3.15,0v11.65h-7.87a1.58,1.58,0,1,0,0,3.15h7.88v11.66a1.57,1.57,0,1,0,3.15,0v-11.66h7.88a1.58,1.58,0,1,0,0-3.15Z"/><path class="cls-1" d="M1057.26,1282.1h-7.87v-11.66a1.57,1.57,0,1,0-3.15,0v11.66h-7.87a1.57,1.57,0,1,0,0,3.15h7.88v11.66a1.57,1.57,0,1,0,3.15,0v-11.66h7.88a1.57,1.57,0,1,0,0-3.15Z"/><path class="cls-1" d="M1149.72,1479.87h-7.87v-11.66a1.57,1.57,0,1,0-3.15,0v11.66h-7.87a1.58,1.58,0,1,0,0,3.15h7.88v11.65a1.57,1.57,0,1,0,3.15,0V1483h7.88a1.58,1.58,0,0,0,0-3.15Z"/><path class="cls-1" d="M1688.43,976.88h-7.87V965.22a1.58,1.58,0,0,0-3.15,0v11.66h-7.87a1.57,1.57,0,1,0,0,3.15h7.88v11.66a1.58,1.58,0,0,0,3.15,0V980h7.88a1.57,1.57,0,0,0,0-3.15Z"/><path class="cls-1" d="M1940.06,949.08h-7.87V937.43a1.58,1.58,0,0,0-3.15,0v11.66h-7.87a1.58,1.58,0,0,0,0,3.15H1929v11.65a1.58,1.58,0,0,0,3.15,0V952.23h7.88a1.58,1.58,0,0,0,0-3.15Z"/><path class="cls-1" d="M2199.78,1135.7h-7.87V1124a1.57,1.57,0,0,0-3.15,0v11.66h-7.87a1.58,1.58,0,1,0,0,3.15h7.88v11.65a1.57,1.57,0,1,0,3.15,0v-11.65h7.88a1.58,1.58,0,0,0,0-3.15Z"/><path class="cls-1" d="M2377,837.71h-7.87V826.06a1.57,1.57,0,1,0-3.15,0v11.65h-7.87a1.58,1.58,0,0,0,0,3.15H2366v11.66a1.57,1.57,0,0,0,3.15,0V840.86H2377a1.58,1.58,0,1,0,0-3.15Z"/><path class="cls-1" d="M458.53,181.77h-7.87V170.12a1.57,1.57,0,1,0-3.15,0v11.66h-7.87a1.57,1.57,0,1,0,0,3.15h7.88v11.65a1.57,1.57,0,1,0,3.15,0V184.92h7.88a1.57,1.57,0,1,0,0-3.15Z"/><path class="cls-1" d="M208.09,211.88h-7.87V200.22a1.58,1.58,0,0,0-3.15,0v11.66h-7.87a1.57,1.57,0,0,0,0,3.15h7.88v11.65a1.58,1.58,0,0,0,3.15,0V215h7.88a1.57,1.57,0,0,0,0-3.15Z"/><path class="cls-1" d="M294.63,735.59H290.5v-6.11a.82.82,0,0,0-1.65,0v6.11h-4.12a.82.82,0,1,0,0,1.65h4.13v6.11a.82.82,0,1,0,1.65,0v-6.11h4.13a.82.82,0,1,0,0-1.65Z"/><path class="cls-1" d="M584.15,933H580v-6.1a.82.82,0,1,0-1.65,0V933h-4.12a.83.83,0,1,0,0,1.65h4.13v6.1a.82.82,0,1,0,1.65,0v-6.1h4.13a.83.83,0,0,0,0-1.65Z"/><path class="cls-1" d="M769.61,1058.66h-4.12v-6.11a.82.82,0,1,0-1.65,0v6.11h-4.12a.82.82,0,1,0,0,1.65h4.13v6.11a.82.82,0,1,0,1.65,0v-6.11h4.13a.82.82,0,1,0,0-1.65Z"/><path class="cls-1" d="M1095.42,737.94h-4.12v-6.11a.82.82,0,1,0-1.65,0v6.11h-4.12a.82.82,0,1,0,0,1.65h4.13v6.11a.82.82,0,1,0,1.65,0v-6.11h4.13a.82.82,0,1,0,0-1.65Z"/><path class="cls-1" d="M1385.83,1030.89h-4.12v-6.11a.83.83,0,0,0-1.65,0v6.11h-4.12a.83.83,0,0,0,0,1.65h4.13v6.1a.83.83,0,0,0,1.65,0v-6.1h4.13a.83.83,0,0,0,0-1.65Z"/><path class="cls-1" d="M1577.15,872.82H1573v-6.11a.83.83,0,0,0-1.65,0v6.11h-4.12a.82.82,0,1,0,0,1.65h4.13v6.11a.83.83,0,0,0,1.65,0v-6.11h4.13a.82.82,0,0,0,0-1.65Z"/><path class="cls-1" d="M1900.65,884.94h-4.12v-6.11a.83.83,0,0,0-1.65,0v6.11h-4.12a.83.83,0,0,0,0,1.65h4.13v6.1a.83.83,0,0,0,1.65,0v-6.1h4.13a.83.83,0,0,0,0-1.65Z"/><path class="cls-1" d="M2185.54,1217h-4.12v-6.11a.82.82,0,1,0-1.65,0V1217h-4.12a.82.82,0,1,0,0,1.65h4.13v6.11a.82.82,0,0,0,1.65,0v-6.11h4.13a.82.82,0,1,0,0-1.65Z"/><path class="cls-1" d="M2303.55,1228.09h-4.12V1222a.83.83,0,1,0-1.65,0v6.11h-4.12a.82.82,0,1,0,0,1.65h4.13v6.11a.83.83,0,0,0,1.65,0v-6.11h4.13a.82.82,0,0,0,0-1.65Z"/><path class="cls-1" d="M206.37,231.36h-4.12v-6.1a.82.82,0,1,0-1.65,0v6.1h-4.12a.82.82,0,1,0,0,1.65h4.13v6.1a.82.82,0,1,0,1.65,0V233h4.13a.82.82,0,1,0,0-1.65Z"/><path class="cls-1" d="M428.89,258.69h-4.12v-6.1a.82.82,0,1,0-1.65,0v6.1H419a.82.82,0,1,0,0,1.65h4.13v6.1a.82.82,0,1,0,1.65,0v-6.1h4.13a.82.82,0,1,0,0-1.65Z"/><path class="cls-1" d="M541,349.1h-4.12V343a.82.82,0,1,0-1.65,0v6.1h-4.12a.82.82,0,0,0,0,1.65h4.13v6.1a.82.82,0,1,0,1.65,0v-6.1H541a.82.82,0,1,0,0-1.65Z"/><path class="cls-1" d="M732.67,324.63h-4.12v-6.1a.82.82,0,0,0-1.65,0v6.1h-4.12a.83.83,0,0,0,0,1.65h4.13v6.1a.82.82,0,0,0,1.65,0v-6.1h4.13a.83.83,0,0,0,0-1.65Z"/><path class="cls-1" d="M1038.08,298.71H1034v-6.1a.82.82,0,1,0-1.65,0v6.1h-4.12a.82.82,0,1,0,0,1.65h4.13v6.1a.82.82,0,1,0,1.65,0v-6.1h4.13a.82.82,0,1,0,0-1.65Z"/><path class="cls-1" d="M1253.71,513.69h-4.12v-6.1a.82.82,0,1,0-1.65,0v6.1h-4.12a.82.82,0,1,0,0,1.65h4.13v6.1a.82.82,0,1,0,1.65,0v-6.1h4.13a.82.82,0,1,0,0-1.65Z"/><path class="cls-1" d="M1465.31,583.22h-4.12v-6.1a.83.83,0,1,0-1.65,0v6.1h-4.12a.82.82,0,1,0,0,1.65h4.13V591a.83.83,0,1,0,1.65,0v-6.1h4.13a.82.82,0,1,0,0-1.65Z"/><path class="cls-1" d="M1813.33,404.44h-4.12v-6.1a.82.82,0,1,0-1.65,0v6.1h-4.12a.82.82,0,1,0,0,1.65h4.13v6.1a.82.82,0,1,0,1.65,0v-6.1h4.13a.82.82,0,1,0,0-1.65Z"/><path class="cls-1" d="M2124.34,688.51h-4.12v-6.1a.83.83,0,0,0-1.65,0v6.1h-4.12a.82.82,0,1,0,0,1.65h4.13v6.1a.83.83,0,0,0,1.65,0v-6.1h4.13a.82.82,0,1,0,0-1.65Z"/><path class="cls-1" d="M2258.93,557.28h-4.12v-6.1a.82.82,0,1,0-1.65,0v6.1H2249a.82.82,0,1,0,0,1.65h4.13V565a.82.82,0,1,0,1.65,0v-6.1h4.13a.82.82,0,1,0,0-1.65Z"/><path class="cls-1" d="M282.45,1100.07h-4.12V1094a.83.83,0,0,0-1.65,0v6.1h-4.12a.83.83,0,0,0,0,1.65h4.13v6.1a.83.83,0,0,0,1.65,0v-6.1h4.13a.83.83,0,0,0,0-1.65Z"/><path class="cls-1" d="M470.69,886h-4.12v-6.1a.82.82,0,1,0-1.65,0V886h-4.12a.83.83,0,1,0,0,1.65h4.13v6.1a.82.82,0,1,0,1.65,0v-6.1h4.13a.83.83,0,0,0,0-1.65Z"/><path class="cls-1" d="M653.32,986.85H649.2v-6.11a.83.83,0,0,0-1.65,0v6.11h-4.12a.82.82,0,1,0,0,1.65h4.13v6.11a.83.83,0,1,0,1.65,0V988.5h4.13a.82.82,0,1,0,0-1.65Z"/><path class="cls-1" d="M822.84,957.61h-4.12v-6.1a.83.83,0,0,0-1.65,0v6.1h-4.12a.83.83,0,0,0,0,1.65h4.13v6.1a.83.83,0,0,0,1.65,0v-6.1h4.13a.83.83,0,0,0,0-1.65Z"/><path class="cls-1" d="M973.2,908.16h-4.12v-6.1a.82.82,0,1,0-1.65,0v6.1H963.3a.83.83,0,0,0,0,1.65h4.13v6.1a.82.82,0,1,0,1.65,0v-6.1h4.13a.83.83,0,0,0,0-1.65Z"/><path class="cls-1" d="M1138.53,471.51h-4.12v-6.11a.83.83,0,0,0-1.65,0v6.11h-4.12a.82.82,0,0,0,0,1.65h4.13v6.1a.83.83,0,0,0,1.65,0v-6.1h4.13a.82.82,0,0,0,0-1.65Z"/><path class="cls-1" d="M1482.5,493h-4.12v-6.1a.82.82,0,1,0-1.65,0V493h-4.12a.82.82,0,1,0,0,1.65h4.13v6.11a.82.82,0,1,0,1.65,0v-6.11h4.13a.82.82,0,1,0,0-1.65Z"/><path class="cls-1" d="M1738.63,361.2h-4.12v-6.1a.83.83,0,0,0-1.65,0v6.1h-4.12a.83.83,0,0,0,0,1.65h4.13V369a.83.83,0,0,0,1.65,0v-6.1h4.13a.83.83,0,0,0,0-1.65Z"/><path class="cls-1" d="M1903.94,389.86h-4.12v-6.1a.83.83,0,1,0-1.65,0v6.1H1894a.82.82,0,0,0,0,1.65h4.13v6.1a.83.83,0,0,0,1.65,0v-6.1h4.13a.82.82,0,1,0,0-1.65Z"/><path class="cls-1" d="M774.37,409.64h-4.12v-6.1a.82.82,0,1,0-1.65,0v6.1h-4.12a.82.82,0,1,0,0,1.65h4.13v6.1a.82.82,0,0,0,1.65,0v-6.1h4.13a.82.82,0,0,0,0-1.65Z"/><path class="cls-1" d="M967.74,470.3h-4.12v-6.1a.82.82,0,1,0-1.65,0v6.1h-4.12a.82.82,0,1,0,0,1.65H962v6.1a.82.82,0,1,0,1.65,0v-6.1h4.13a.82.82,0,1,0,0-1.65Z"/><path class="cls-1" d="M899.13,1086.33H895v-6.1a.82.82,0,1,0-1.65,0v6.1h-4.12a.83.83,0,1,0,0,1.65h4.13v6.1a.82.82,0,1,0,1.65,0V1088h4.13a.83.83,0,1,0,0-1.65Z"/><path class="cls-1" d="M1140.48,1180.43h-4.12v-6.1a.82.82,0,1,0-1.65,0v6.1h-4.12a.83.83,0,0,0,0,1.65h4.13v6.1a.82.82,0,1,0,1.65,0v-6.1h4.13a.83.83,0,1,0,0-1.65Z"/><path class="cls-1" d="M1293.24,1360.36h-4.12v-6.11a.83.83,0,1,0-1.65,0v6.11h-4.12a.82.82,0,0,0,0,1.65h4.13v6.11a.83.83,0,1,0,1.65,0V1362h4.13a.82.82,0,1,0,0-1.65Z"/><path class="cls-1" d="M1923.32,863.08h-4.12V857a.83.83,0,0,0-1.65,0v6.1h-4.12a.83.83,0,0,0,0,1.65h4.13v6.1a.83.83,0,0,0,1.65,0v-6.1h4.13a.83.83,0,0,0,0-1.65Z"/><path class="cls-1" d="M1829.64,812.17h-4.12v-6.1a.82.82,0,1,0-1.65,0v6.1h-4.12a.83.83,0,0,0,0,1.65h4.13v6.1a.82.82,0,1,0,1.65,0v-6.1h4.13a.83.83,0,0,0,0-1.65Z"/><path class="cls-1" d="M1613.95,599.6h-4.12v-6.1a.82.82,0,1,0-1.65,0v6.1H1604a.82.82,0,1,0,0,1.65h4.13v6.1a.82.82,0,1,0,1.65,0v-6.1h4.13a.82.82,0,1,0,0-1.65Z"/><path class="cls-1" d="M1429.68,584.7h-4.12v-6.1a.82.82,0,1,0-1.65,0v6.1h-4.12a.83.83,0,0,0,0,1.65h4.13v6.1a.82.82,0,1,0,1.65,0v-6.1h4.13a.83.83,0,0,0,0-1.65Z"/><path class="cls-1" d="M1191.39,404.85h-4.12v-6.1a.83.83,0,0,0-1.65,0v6.1h-4.12a.83.83,0,1,0,0,1.65h4.13v6.1a.83.83,0,0,0,1.65,0v-6.1h4.13a.83.83,0,0,0,0-1.65Z"/><path class="cls-1" d="M821.12,608.31H817v-6.1a.82.82,0,1,0-1.65,0v6.1h-4.12a.82.82,0,0,0,0,1.65h4.13v6.1a.82.82,0,1,0,1.65,0V610h4.13a.82.82,0,1,0,0-1.65Z"/><path class="cls-1" d="M717.26,467.49h-4.12v-6.1a.82.82,0,1,0-1.65,0v6.1h-4.12a.82.82,0,1,0,0,1.65h4.13v6.1a.82.82,0,1,0,1.65,0v-6.1h4.13a.82.82,0,1,0,0-1.65Z"/><path class="cls-1" d="M412.85,576.63h-4.12v-6.1a.82.82,0,0,0-1.65,0v6.1h-4.12a.83.83,0,0,0,0,1.65h4.13v6.1a.82.82,0,0,0,1.65,0v-6.1h4.13a.83.83,0,0,0,0-1.65Z"/><path class="cls-1" d="M315.33,374.65H311.2v-6.1a.82.82,0,1,0-1.65,0v6.1h-4.12a.82.82,0,1,0,0,1.65h4.13v6.1a.82.82,0,1,0,1.65,0v-6.1h4.13a.82.82,0,1,0,0-1.65Z"/><path class="cls-1" d="M1519.37,1279.56h-4.12v-6.1a.83.83,0,0,0-1.65,0v6.1h-4.12a.83.83,0,0,0,0,1.65h4.13v6.1a.83.83,0,0,0,1.65,0v-6.1h4.13a.83.83,0,0,0,0-1.65Z"/><path class="cls-1" d="M1779.11,1242.27H1775v-6.11a.82.82,0,0,0-1.65,0v6.11h-4.12a.82.82,0,1,0,0,1.65h4.13V1250a.82.82,0,1,0,1.65,0v-6.11h4.13a.82.82,0,1,0,0-1.65Z"/><path class="cls-1" d="M2109.24,1130.18h-4.12v-6.11a.83.83,0,0,0-1.65,0v6.11h-4.12a.82.82,0,1,0,0,1.65h4.13v6.11a.83.83,0,0,0,1.65,0v-6.11h4.13a.82.82,0,0,0,0-1.65Z"/><path class="cls-1" d="M2378.86,1117.61h-4.12v-6.11a.83.83,0,0,0-1.65,0v6.11H2369a.82.82,0,1,0,0,1.65h4.13v6.11a.83.83,0,0,0,1.65,0v-6.11h4.13a.82.82,0,0,0,0-1.65Z"/><path class="cls-1" d="M933.63,540.2h-4.12v-6.1a.82.82,0,1,0-1.65,0v6.1h-4.12a.82.82,0,1,0,0,1.65h4.13V548a.82.82,0,1,0,1.65,0v-6.1h4.13a.82.82,0,0,0,0-1.65Z"/><path class="cls-1" d="M1044,236.5h-4.12v-6.1a.82.82,0,1,0-1.65,0v6.1h-4.12a.82.82,0,1,0,0,1.65h4.13v6.1a.82.82,0,1,0,1.65,0v-6.1H1044a.82.82,0,1,0,0-1.65Z"/><path class="cls-1" d="M1262.75,439.17h-4.12v-6.1a.82.82,0,1,0-1.65,0v6.1h-4.12a.83.83,0,1,0,0,1.65H1257v6.1a.82.82,0,1,0,1.65,0v-6.1h4.13a.83.83,0,0,0,0-1.65Z"/><path class="cls-1" d="M1480.07,220.13h-4.12V214a.83.83,0,0,0-1.65,0v6.1h-4.12a.82.82,0,0,0,0,1.65h4.13v6.11a.83.83,0,0,0,1.65,0v-6.11h4.13a.82.82,0,1,0,0-1.65Z"/><path class="cls-1" d="M1607.63,204.25h-4.12v-6.1a.83.83,0,0,0-1.65,0v6.1h-4.12a.82.82,0,1,0,0,1.65h4.13V212a.83.83,0,0,0,1.65,0v-6.1h4.13a.82.82,0,1,0,0-1.65Z"/><path class="cls-1" d="M1852.31,133.77h-4.12v-6.1a.83.83,0,0,0-1.65,0v6.1h-4.12a.83.83,0,1,0,0,1.65h4.13v6.1a.83.83,0,0,0,1.65,0v-6.1h4.13a.83.83,0,0,0,0-1.65Z"/><path class="cls-1" d="M2078.06,437.52h-4.12v-6.1a.82.82,0,1,0-1.65,0v6.1h-4.12a.82.82,0,1,0,0,1.65h4.13v6.1a.82.82,0,1,0,1.65,0v-6.1h4.13a.82.82,0,1,0,0-1.65Z"/><path class="cls-1" d="M1606,724.42h-4.12v-6.1a.83.83,0,0,0-1.65,0v6.1h-4.12a.83.83,0,0,0,0,1.65h4.13v6.1a.83.83,0,0,0,1.65,0v-6.1H1606a.83.83,0,0,0,0-1.65Z"/><path class="cls-1" d="M1394.81,493.82h-4.12v-6.1a.82.82,0,1,0-1.65,0v6.1h-4.12a.82.82,0,1,0,0,1.65H1389v6.1a.82.82,0,1,0,1.65,0v-6.1h4.13a.82.82,0,1,0,0-1.65Z"/><path class="cls-1" d="M1194.81,714h-4.12v-6.1a.83.83,0,0,0-1.65,0V714h-4.12a.82.82,0,1,0,0,1.65H1189v6.1a.83.83,0,0,0,1.65,0v-6.1h4.13a.82.82,0,1,0,0-1.65Z"/><path class="cls-1" d="M883.51,590.89h-4.12v-6.1a.82.82,0,0,0-1.65,0v6.1h-4.12a.82.82,0,1,0,0,1.65h4.13v6.1a.82.82,0,1,0,1.65,0v-6.1h4.13a.82.82,0,1,0,0-1.65Z"/><path class="cls-1" d="M620.75,737.23h-4.12v-6.1a.82.82,0,1,0-1.65,0v6.1h-4.12a.83.83,0,1,0,0,1.65H615V745a.82.82,0,1,0,1.65,0v-6.1h4.13a.83.83,0,0,0,0-1.65Z"/><path class="cls-1" d="M358.42,500.33h-4.12v-6.1a.83.83,0,0,0-1.65,0v6.1h-4.12a.82.82,0,0,0,0,1.65h4.13v6.1a.83.83,0,1,0,1.65,0V502h4.13a.82.82,0,0,0,0-1.65Z"/><path class="cls-1" d="M2102.79,524.71h-4.12v-6.1a.83.83,0,0,0-1.65,0v6.1h-4.12a.83.83,0,0,0,0,1.65H2097v6.1a.83.83,0,0,0,1.65,0v-6.1h4.13a.83.83,0,0,0,0-1.65Z"/><path class="cls-1" d="M1958.57,610.39h-4.12v-6.1a.83.83,0,0,0-1.65,0v6.1h-4.12a.82.82,0,1,0,0,1.65h4.13v6.1a.83.83,0,0,0,1.65,0V612h4.13a.82.82,0,1,0,0-1.65Z"/><path class="cls-1" d="M1786.08,650H1782v-6.1a.83.83,0,1,0-1.65,0V650h-4.12a.82.82,0,1,0,0,1.65h4.13v6.1a.83.83,0,0,0,1.65,0v-6.1h4.13a.82.82,0,1,0,0-1.65Z"/><path class="cls-1" d="M1557.1,513.94H1553v-6.1a.82.82,0,1,0-1.65,0v6.1h-4.12a.82.82,0,1,0,0,1.65h4.13v6.1a.82.82,0,0,0,1.65,0v-6.1h4.13a.82.82,0,1,0,0-1.65Z"/><path class="cls-1" d="M1399.74,732.59h-4.12v-6.1a.83.83,0,0,0-1.65,0v6.1h-4.12a.83.83,0,0,0,0,1.65H1394v6.1a.83.83,0,0,0,1.65,0v-6.1h4.13a.83.83,0,0,0,0-1.65Z"/><path class="cls-1" d="M1194.19,452.78h-4.12v-6.1a.83.83,0,1,0-1.65,0v6.1h-4.12a.82.82,0,0,0,0,1.65h4.13v6.1a.83.83,0,1,0,1.65,0v-6.1h4.13a.82.82,0,1,0,0-1.65Z"/><path class="cls-1" d="M959.86,719.15h-4.12V713a.82.82,0,1,0-1.65,0v6.1H950a.82.82,0,1,0,0,1.65h4.13v6.1a.82.82,0,1,0,1.65,0v-6.1h4.13a.82.82,0,1,0,0-1.65Z"/><path class="cls-1" d="M754.74,948.64h-4.12v-6.1a.82.82,0,1,0-1.65,0v6.1h-4.12a.83.83,0,0,0,0,1.65H749v6.1a.82.82,0,1,0,1.65,0v-6.1h4.13a.83.83,0,0,0,0-1.65Z"/><path class="cls-1" d="M958.83,745.12h-4.12V739a.82.82,0,1,0-1.65,0v6.1h-4.12a.83.83,0,0,0,0,1.65h4.13v6.11a.82.82,0,0,0,1.65,0v-6.11h4.13a.83.83,0,0,0,0-1.65Z"/><path class="cls-1" d="M1176.57,714.76h-4.12v-6.1a.82.82,0,0,0-1.65,0v6.1h-4.12a.83.83,0,0,0,0,1.65h4.13v6.1a.82.82,0,0,0,1.65,0v-6.1h4.13a.83.83,0,0,0,0-1.65Z"/><path class="cls-1" d="M1298.42,922.37h-4.12v-6.11a.82.82,0,1,0-1.65,0v6.11h-4.12a.82.82,0,1,0,0,1.65h4.13v6.11a.82.82,0,1,0,1.65,0V924h4.13a.82.82,0,1,0,0-1.65Z"/><path class="cls-1" d="M737.52,861.34H733.4v-6.1a.82.82,0,1,0-1.65,0v6.1h-4.12a.83.83,0,0,0,0,1.65h4.13v6.1a.82.82,0,1,0,1.65,0V863h4.13a.83.83,0,1,0,0-1.65Z"/><path class="cls-1" d="M1029.26,808.29h-4.12v-6.1a.82.82,0,1,0-1.65,0v6.1h-4.12a.83.83,0,0,0,0,1.65h4.13V816a.82.82,0,1,0,1.65,0v-6.1h4.13a.83.83,0,1,0,0-1.65Z"/><path class="cls-1" d="M1097.6,568.31h-4.12v-6.1a.82.82,0,1,0-1.65,0v6.1h-4.12a.82.82,0,1,0,0,1.65h4.13v6.1a.82.82,0,1,0,1.65,0V570h4.13a.82.82,0,0,0,0-1.65Z"/><path class="cls-1" d="M1366.89,631.76h-4.12v-6.1a.83.83,0,0,0-1.65,0v6.1H1357a.83.83,0,0,0,0,1.65h4.13v6.1a.83.83,0,0,0,1.65,0v-6.1h4.13a.83.83,0,1,0,0-1.65Z"/><path class="cls-1" d="M1083.61,852.33h-4.12v-6.11a.82.82,0,1,0-1.65,0v6.11h-4.12a.82.82,0,1,0,0,1.65h4.13v6.11a.82.82,0,0,0,1.65,0V854h4.13a.82.82,0,1,0,0-1.65Z"/><path class="cls-1" d="M875.9,859.68h-4.12v-6.1a.82.82,0,1,0-1.65,0v6.1H866a.83.83,0,1,0,0,1.65h4.13v6.1a.82.82,0,1,0,1.65,0v-6.1h4.13a.83.83,0,0,0,0-1.65Z"/><path class="cls-1" d="M766.6,697.88h-4.12v-6.1a.82.82,0,0,0-1.65,0v6.1H756.7a.83.83,0,1,0,0,1.65h4.13v6.1a.82.82,0,0,0,1.65,0v-6.1h4.13a.83.83,0,0,0,0-1.65Z"/><path class="cls-1" d="M634.92,657.17H630.8v-6.1a.82.82,0,1,0-1.65,0v6.1H625a.82.82,0,1,0,0,1.65h4.13v6.1a.82.82,0,1,0,1.65,0v-6.1h4.13a.82.82,0,1,0,0-1.65Z"/><path class="cls-1" d="M1213.46,1494.92h-4.12v-6.1a.83.83,0,0,0-1.65,0v6.1h-4.12a.83.83,0,0,0,0,1.65h4.13v6.1a.83.83,0,0,0,1.65,0v-6.1h4.13a.83.83,0,0,0,0-1.65Z"/><path class="cls-1" d="M1199.05,1124.56h-4.12v-6.1a.83.83,0,1,0-1.65,0v6.1h-4.12a.83.83,0,0,0,0,1.65h4.13v6.1a.83.83,0,0,0,1.65,0v-6.1h4.13a.83.83,0,1,0,0-1.65Z"/><path class="cls-1" d="M1420.74,1341.72h-4.12v-6.11a.82.82,0,1,0-1.65,0v6.11h-4.12a.82.82,0,1,0,0,1.65H1415v6.11a.82.82,0,1,0,1.65,0v-6.11h4.13a.82.82,0,1,0,0-1.65Z"/><path class="cls-1" d="M1552.88,975.69h-4.12v-6.11a.83.83,0,0,0-1.65,0v6.11H1543a.83.83,0,1,0,0,1.65h4.13v6.1a.83.83,0,1,0,1.65,0v-6.1h4.13a.83.83,0,0,0,0-1.65Z"/><path class="cls-1" d="M1797.22,858.2h-4.12v-6.1a.83.83,0,1,0-1.65,0v6.1h-4.12a.83.83,0,1,0,0,1.65h4.13V866a.83.83,0,1,0,1.65,0v-6.1h4.13a.83.83,0,1,0,0-1.65Z"/><path class="cls-1" d="M1979.23,1071.09h-4.12V1065a.82.82,0,1,0-1.65,0v6.11h-4.12a.82.82,0,1,0,0,1.65h4.13v6.11a.82.82,0,0,0,1.65,0v-6.11h4.13a.82.82,0,1,0,0-1.65Z"/><path class="cls-1" d="M2191.66,1109.15h-4.12V1103a.83.83,0,1,0-1.65,0v6.11h-4.12a.82.82,0,1,0,0,1.65h4.13v6.11a.83.83,0,1,0,1.65,0v-6.11h4.13a.82.82,0,0,0,0-1.65Z"/><path class="cls-1" d="M1038.75,1161.68h-4.12v-6.1a.82.82,0,1,0-1.65,0v6.1h-4.12a.83.83,0,0,0,0,1.65H1033v6.1a.82.82,0,1,0,1.65,0v-6.1h4.13a.83.83,0,0,0,0-1.65Z"/><path class="cls-1" d="M1158.15,1149.58H1154v-6.11a.82.82,0,0,0-1.65,0v6.11h-4.12a.83.83,0,0,0,0,1.65h4.13v6.1a.82.82,0,1,0,1.65,0v-6.1h4.13a.83.83,0,0,0,0-1.65Z"/><path class="cls-1" d="M1377.07,1391.83h-4.12v-6.11a.82.82,0,0,0-1.65,0v6.11h-4.12a.82.82,0,1,0,0,1.65h4.13v6.11a.82.82,0,1,0,1.65,0v-6.11h4.13a.82.82,0,1,0,0-1.65Z"/><path class="cls-1" d="M1659.83,1120.19h-4.12v-6.11a.82.82,0,0,0-1.65,0v6.11h-4.12a.82.82,0,1,0,0,1.65h4.13v6.11a.82.82,0,1,0,1.65,0v-6.11h4.13a.82.82,0,1,0,0-1.65Z"/><path class="cls-1" d="M1902.89,1451.9h-4.12v-6.11a.82.82,0,1,0-1.65,0v6.11H1893a.82.82,0,1,0,0,1.65h4.13v6.11a.82.82,0,1,0,1.65,0v-6.11h4.13a.82.82,0,1,0,0-1.65Z"/><path class="cls-1" d="M800.36,961.67h-4.12v-6.1a.82.82,0,1,0-1.65,0v6.1h-4.12a.83.83,0,0,0,0,1.65h4.13v6.1a.82.82,0,1,0,1.65,0v-6.1h4.13a.83.83,0,0,0,0-1.65Z"/><path class="cls-1" d="M628.4,917.74h-4.12v-6.11a.82.82,0,0,0-1.65,0v6.11H618.5a.82.82,0,1,0,0,1.65h4.13v6.11a.82.82,0,1,0,1.65,0v-6.11h4.13a.82.82,0,1,0,0-1.65Z"/><path class="cls-1" d="M338.44,1066.56h-4.12v-6.11a.82.82,0,1,0-1.65,0v6.11h-4.12a.82.82,0,1,0,0,1.65h4.13v6.11a.82.82,0,1,0,1.65,0v-6.11h4.13a.82.82,0,1,0,0-1.65Z"/><path class="cls-1" d="M193,897.21h-4.12v-6.11a.82.82,0,1,0-1.65,0v6.11h-4.12a.82.82,0,1,0,0,1.65h4.13V905a.82.82,0,0,0,1.65,0v-6.11H193a.82.82,0,1,0,0-1.65Z"/><path class="cls-1" d="M345.43,733.62H341.3v-6.1a.82.82,0,1,0-1.65,0v6.1h-4.12a.83.83,0,0,0,0,1.65h4.13v6.1a.82.82,0,1,0,1.65,0v-6.1h4.13a.83.83,0,0,0,0-1.65Z"/><path class="cls-1" d="M264.53,930.25h-4.12v-6.1a.83.83,0,1,0-1.65,0v6.1h-4.12a.83.83,0,0,0,0,1.65h4.13V938a.83.83,0,0,0,1.65,0V931.9h4.13a.83.83,0,0,0,0-1.65Z"/><path class="cls-1" d="M51.44,716.41H47.31v-6.1a.82.82,0,1,0-1.65,0v6.1H41.54a.82.82,0,1,0,0,1.65h4.13v6.1a.82.82,0,1,0,1.65,0v-6.1h4.13a.82.82,0,0,0,0-1.65Z"/><path class="cls-1" d="M919.88,198.95h-4.12v-6.1a.82.82,0,1,0-1.65,0v6.1H910a.82.82,0,1,0,0,1.65h4.13v6.1a.82.82,0,1,0,1.65,0v-6.1h4.13a.82.82,0,1,0,0-1.65Z"/><path class="cls-1" d="M767.9,329.43h-4.12v-6.1a.82.82,0,1,0-1.65,0v6.1H758a.82.82,0,1,0,0,1.65h4.13v6.1a.82.82,0,1,0,1.65,0v-6.1h4.13a.82.82,0,1,0,0-1.65Z"/><path class="cls-1" d="M543.88,375.85h-4.12v-6.1a.83.83,0,1,0-1.65,0v6.1H534a.82.82,0,0,0,0,1.65h4.13v6.1a.83.83,0,1,0,1.65,0v-6.1h4.13a.82.82,0,0,0,0-1.65Z"/><path class="cls-1" d="M431.94,64.19h-4.12v-6.1a.83.83,0,0,0-1.65,0v6.1H422a.82.82,0,0,0,0,1.65h4.13v6.1a.83.83,0,0,0,1.65,0v-6.1h4.13a.82.82,0,0,0,0-1.65Z"/><path class="cls-1" d="M203.1,340.2H199v-6.1a.83.83,0,1,0-1.65,0v6.1H193.2a.82.82,0,0,0,0,1.65h4.13V348a.83.83,0,0,0,1.65,0v-6.1h4.13a.82.82,0,0,0,0-1.65Z"/><path class="cls-1" d="M1667.36,338.27h-4.12v-6.1a.82.82,0,1,0-1.65,0v6.1h-4.12a.82.82,0,1,0,0,1.65h4.13V346a.82.82,0,1,0,1.65,0v-6.1h4.13a.82.82,0,1,0,0-1.65Z"/><path class="cls-1" d="M1357.63,199.42h-4.12v-6.1a.83.83,0,0,0-1.65,0v6.1h-4.12a.82.82,0,1,0,0,1.65h4.13v6.1a.83.83,0,0,0,1.65,0v-6.1h4.13a.82.82,0,0,0,0-1.65Z"/><path class="cls-1" d="M1142.9,155.57h-4.12v-6.1a.82.82,0,0,0-1.65,0v6.1H1133a.83.83,0,0,0,0,1.65h4.13v6.1a.82.82,0,0,0,1.65,0v-6.1h4.13a.83.83,0,1,0,0-1.65Z"/><path class="cls-1" d="M1023.12,220.66H1019v-6.1a.83.83,0,0,0-1.65,0v6.1h-4.12a.82.82,0,0,0,0,1.65h4.13v6.1a.83.83,0,0,0,1.65,0v-6.1h4.13a.82.82,0,0,0,0-1.65Z"/><path class="cls-1" d="M1598.14,172.1H1594V166a.83.83,0,0,0-1.65,0v6.1h-4.12a.82.82,0,0,0,0,1.65h4.13v6.1a.83.83,0,0,0,1.65,0v-6.1h4.13a.82.82,0,1,0,0-1.65Z"/><path class="cls-1" d="M1376.21,65.43h-4.12v-6.1a.83.83,0,0,0-1.65,0v6.1h-4.12a.83.83,0,0,0,0,1.65h4.13v6.1a.83.83,0,0,0,1.65,0v-6.1h4.13a.83.83,0,0,0,0-1.65Z"/><path class="cls-1" d="M1207.17,85.92H1203v-6.1a.83.83,0,0,0-1.65,0v6.1h-4.12a.82.82,0,0,0,0,1.65h4.13v6.1a.83.83,0,1,0,1.65,0v-6.1h4.13a.82.82,0,1,0,0-1.65Z"/><path class="cls-1" d="M868.4,664.58h-4.12v-6.1a.82.82,0,1,0-1.65,0v6.1H858.5a.82.82,0,1,0,0,1.65h4.13v6.1a.82.82,0,1,0,1.65,0v-6.1h4.13a.82.82,0,1,0,0-1.65Z"/><path class="cls-1" d="M1118.66,731h-4.12v-6.1a.82.82,0,1,0-1.65,0V731h-4.12a.83.83,0,0,0,0,1.65h4.13v6.1a.82.82,0,1,0,1.65,0v-6.1h4.13a.83.83,0,0,0,0-1.65Z"/><path class="cls-1" d="M1168.18,422.53h-4.12v-6.1a.82.82,0,0,0-1.65,0v6.1h-4.12a.82.82,0,0,0,0,1.65h4.13v6.1a.82.82,0,1,0,1.65,0v-6.1h4.13a.82.82,0,1,0,0-1.65Z"/><path class="cls-1" d="M1384.56,419.89h-4.12v-6.11a.82.82,0,1,0-1.65,0v6.11h-4.12a.82.82,0,1,0,0,1.65h4.13v6.1a.82.82,0,1,0,1.65,0v-6.1h4.13a.82.82,0,1,0,0-1.65Z"/><path class="cls-1" d="M1480.62,353.35h-4.12v-6.11a.83.83,0,0,0-1.65,0v6.11h-4.12a.82.82,0,1,0,0,1.65h4.13v6.1a.83.83,0,0,0,1.65,0V355h4.13a.82.82,0,0,0,0-1.65Z"/><path class="cls-1" d="M1724,322.73h-4.12v-6.1a.82.82,0,1,0-1.65,0v6.1h-4.12a.83.83,0,0,0,0,1.65h4.13v6.1a.82.82,0,1,0,1.65,0v-6.1H1724a.83.83,0,0,0,0-1.65Z"/><path class="cls-1" d="M2013.64,484.15h-4.12V478a.83.83,0,0,0-1.65,0v6.1h-4.12a.82.82,0,1,0,0,1.65h4.13v6.1a.83.83,0,0,0,1.65,0v-6.1h4.13a.82.82,0,0,0,0-1.65Z"/><path class="cls-1" d="M1549,173h-4.12v-6.1a.83.83,0,0,0-1.65,0V173h-4.12a.82.82,0,0,0,0,1.65h4.13v6.1a.83.83,0,0,0,1.65,0v-6.1H1549a.82.82,0,1,0,0-1.65Z"/><path class="cls-1" d="M1298.39,200h-4.12v-6.1a.83.83,0,0,0-1.65,0V200h-4.12a.82.82,0,1,0,0,1.65h4.13v6.1a.83.83,0,0,0,1.65,0v-6.1h4.13a.82.82,0,0,0,0-1.65Z"/><path class="cls-1" d="M1007.92,104.22h-4.12v-6.1a.82.82,0,1,0-1.65,0v6.1H998a.82.82,0,1,0,0,1.65h4.12V112a.82.82,0,1,0,1.65,0v-6.1h4.13a.82.82,0,1,0,0-1.65Z"/><path class="cls-1" d="M1733.91,1083.74h-12.5v-18.5a2.5,2.5,0,0,0-5,0v18.5h-12.5a2.5,2.5,0,0,0,0,5h12.5v18.5a2.5,2.5,0,0,0,5,0v-18.5h12.5a2.5,2.5,0,0,0,0-5Z"/><path class="cls-1" d="M596.8,1183.57H584.3v-18.5a2.5,2.5,0,0,0-5,0v18.5H566.8a2.5,2.5,0,1,0,0,5h12.5v18.5a2.5,2.5,0,0,0,5,0v-18.5h12.5a2.5,2.5,0,0,0,0-5Z"/><path class="cls-1" d="M770.81,433.06h-12.5v-18.5a2.5,2.5,0,0,0-5,0v18.5h-12.5a2.5,2.5,0,0,0,0,5h12.5v18.5a2.5,2.5,0,1,0,5,0v-18.5h12.5a2.5,2.5,0,0,0,0-5Z"/><path class="cls-1" d="M1727.91,646.23h-12.5v-18.5a2.5,2.5,0,1,0-5,0v18.5h-12.5a2.5,2.5,0,0,0,0,5h12.5v18.5a2.5,2.5,0,0,0,5,0v-18.5h12.5a2.5,2.5,0,0,0,0-5Z"/><path class="cls-1" d="M413.78,750.94h-12.5v-18.5a2.5,2.5,0,0,0-5,0v18.5h-12.5a2.5,2.5,0,0,0,0,5h12.5v18.5a2.5,2.5,0,0,0,5,0v-18.5h12.5a2.5,2.5,0,0,0,0-5Z"/><path class="cls-1" d="M2117.95,922.26h-12.5v-18.5a2.5,2.5,0,1,0-5,0v18.5h-12.5a2.5,2.5,0,0,0,0,5h12.5v18.5a2.5,2.5,0,0,0,5,0v-18.5h12.5a2.5,2.5,0,0,0,0-5Z"/><path class="cls-1" d="M1325.87,619.81h-12.5v-18.5a2.5,2.5,0,1,0-5,0v18.5h-12.5a2.5,2.5,0,0,0,0,5h12.5v18.5a2.5,2.5,0,0,0,5,0v-18.5h12.5a2.5,2.5,0,0,0,0-5Z"/></g></g></svg>