<svg id="Layer_1" data-name="Layer 1" xmlns="http://www.w3.org/2000/svg" viewBox="0 0 97.14 79.4"><title>twitter_icon</title><path d="M49.13,35.13A57.34,57.34,0,0,1,8.06,14.07S-0.81,28,13.76,40.82a18.59,18.59,0,0,1-8.37-2.38S3.69,52.35,20.65,58.18c0,0-2.65,1.59-8.34,0,0,0,2,12.19,18,14.57,0,0-8.87,9.93-28.89,8.34,0,0,23.19,15.63,51.67,4.77s37-41.33,35.76-55.5c0,0,8.42-7,9.71-10.2,0,0-6.33,2.4-10.37,2.65,0,0,6.49-4.64,7.68-10.6,0,0-8.61,4.77-12.32,4.5,0,0-12.26-13.61-28.08-1.19C46.88,22.28,49.13,35.13,49.13,35.13Z" transform="translate(-1.43 -10.3)" style="fill:#fff"/></svg>