<svg id="Layer_1" data-name="Layer 1" xmlns="http://www.w3.org/2000/svg" viewBox="0 0 45.4 36.09">
  <title>windows_64_icon</title>
  <g>
    <rect width="21.31" height="16.63"/>
    <rect x="24.09" width="21.31" height="16.63"/>
    <rect y="19.46" width="21.31" height="16.63"/>
    <g>
      <polygon points="37.09 28.01 37.09 28.13 39.12 28.13 39.24 28.01 39.24 25.61 39.12 25.61 37.09 28.01"/>
      <path d="M34,30.44c-1,0-1.32.6-1.32,1.44S33,33.32,34,33.32c.72,0,1.2-.6,1.2-1.44S34.82,30.44,34,30.44Z" transform="translate(-2.3 -2.67)"/>
      <path d="M26.39,22.13V38.75H47.7V22.13ZM34,34.76c-2.28,0-3.12-1.44-3.12-4.32,0-2.64,1-4.32,3.12-4.32,1.68,0,2.64.84,2.76,2l-.12.12H35.18l-.12-.12c-.12-.36-.36-.6-1.08-.6-1.2,0-1.32,1.32-1.32,1.92h.12A1.78,1.78,0,0,1,34.22,29a2.62,2.62,0,0,1,2.64,2.76A2.8,2.8,0,0,1,34,34.76Zm9.24-.24-.12.12H41.66l-.12-.12V32.36l-.12-.12H37.71l-.12-.12V30.8l.12-.24,3.6-4.2.24-.12H43.1l.12.12Z" transform="translate(-2.3 -2.67)"/>
    </g>
  </g>
</svg>
