<svg id="Layer_1" data-name="Layer 1" xmlns="http://www.w3.org/2000/svg" viewBox="0 0 45.4 36.09">
  <title>windows_32_icon</title>
  <g>
    <rect width="21.31" height="16.63"/>
    <rect x="24.09" width="21.31" height="16.63"/>
    <rect y="19.46" width="21.31" height="16.63"/>
    <path d="M26.39,22.13V38.75H47.7V22.13ZM33.5,34.76c-1.92,0-2.88-1.2-2.88-2.4l.12-.12h1.44l.12.12c0,.48.36,1,1.2,1a1.32,1.32,0,0,0,1.44-1.44c0-1-.48-1.44-1.2-1.44a1.05,1.05,0,0,0-.72.24h-.6l-.12-.12V29.48L34,27.8v-.12H31.11L31,27.56v-1.2l.12-.12H36l.12.12v1.2L36,27.8l-1.56,1.44v.12a2.33,2.33,0,0,1,2.16,2.52A2.84,2.84,0,0,1,33.5,34.76Zm10-.24-.12.12H37.71l-.12-.12V33.2l.12-.24,2.16-1.8c1.44-1.2,1.68-1.68,1.68-2.4s-.36-1.2-1.08-1.2c-1,0-1.2.48-1.2,1.2l-.12.12H37.71l-.12-.12c0-1.32.72-2.64,2.88-2.64a2.52,2.52,0,0,1,2.76,2.52c0,1.32-.6,2-2,3.24l-1.44,1.2v.12h3.6l.12.12Z" transform="translate(-2.3 -2.67)"/>
  </g>
</svg>
